<?xml version="1.0" encoding="UTF-8" standalone="no"?>
<!-- Generator: Adobe Illustrator 21.0.0, SVG Export Plug-In . SVG Version: 6.00 Build 0)  -->

<svg
   version="1.1"
   x="0px"
   y="0px"
   viewBox="0 0 1024 1024"
   style="enable-background:new 0 0 1024 1024;"
   xml:space="preserve"
   id="svg1"
   sodipodi:docname="shodan_icon.svg"
   inkscape:version="1.3 (0e150ed, 2023-07-21)"
   xmlns:inkscape="http://www.inkscape.org/namespaces/inkscape"
   xmlns:sodipodi="http://sodipodi.sourceforge.net/DTD/sodipodi-0.dtd"
   xmlns="http://www.w3.org/2000/svg"
   xmlns:svg="http://www.w3.org/2000/svg"><defs
   id="defs1" /><sodipodi:namedview
   id="namedview1"
   pagecolor="#ffffff"
   bordercolor="#000000"
   borderopacity="0.25"
   inkscape:showpageshadow="2"
   inkscape:pageopacity="0.0"
   inkscape:pagecheckerboard="0"
   inkscape:deskcolor="#d1d1d1"
   inkscape:zoom="0.49166018"
   inkscape:cx="313.22447"
   inkscape:cy="494.2438"
   inkscape:window-width="1920"
   inkscape:window-height="1008"
   inkscape:window-x="0"
   inkscape:window-y="0"
   inkscape:window-maximized="1"
   inkscape:current-layer="Icon" />&#10;<style
   type="text/css"
   id="style1">&#10;	.st0{fill:#FF9900;}&#10;	.st1{fill:#FFFFFF;}&#10;</style>&#10;&#10;<g
   id="Icon">&#10;	<circle
   class="st0"
   cx="512"
   cy="512"
   r="512"
   id="circle1"
   style="fill:#191918;fill-opacity:1" />&#10;	<g
   id="g11"
   transform="matrix(0.03209871,0,0,0.02861989,181.0126,214.84159)"><g
     id="l6T8NmuZ0o8bqjXL7jbz7ZF"
     fill="#ce3737"
     style="display:inline"><g
       id="g3"><path
         id="p158eatZsD"
         d="m 12985,15733 c -16,-2 -102,-10 -190,-19 -660,-65 -1328,-303 -1895,-677 -629,-415 -1159,-1003 -1486,-1652 -55,-110 -121,-249 -146,-310 -55,-132 -180,-509 -205,-617 -9,-43 -21,-78 -26,-78 -4,0 -6,-4 -3,-8 3,-5 -3,-52 -14,-105 -107,-534 -108,-1154 -1,-1702 35,-182 106,-439 152,-557 17,-43 29,-82 27,-88 -2,-6 -23,4 -48,23 -88,66 -247,161 -425,251 -378,193 -690,290 -1145,356 -264,38 -725,31 -1010,-16 -761,-125 -1446,-485 -1979,-1040 -156,-162 -233,-255 -347,-419 -245,-350 -372,-618 -510,-1072 -129,-426 -167,-981 -99,-1448 27,-184 40,-251 75,-385 17,-66 91,-295 121,-375 87,-231 232,-511 372,-720 138,-205 398,-501 593,-673 296,-261 661,-488 999,-622 342,-135 637,-207 1005,-246 256,-27 710,-9 940,37 168,34 285,61 370,88 52,16 101,31 108,33 17,4 18,1 86,-144 291,-627 761,-1137 1364,-1482 46,-26 102,-55 125,-66 23,-10 85,-38 137,-62 315,-149 646,-238 1030,-279 145,-15 502,-15 640,0 365,41 662,117 969,248 87,37 205,97 426,217 44,24 314,219 410,297 106,86 371,362 450,469 39,53 80,109 92,125 193,260 380,635 473,948 100,334 140,612 140,968 0,458 -91,904 -265,1294 -99,222 -156,325 -284,520 -88,134 -178,253 -238,316 -19,20 -31,39 -26,42 5,3 47,10 93,17 450,59 877,187 1324,397 78,37 143,70 146,73 3,4 39,25 80,47 161,86 465,296 640,444 249,210 507,475 654,674 49,66 108,145 131,175 23,30 71,101 106,157 400,638 606,1264 664,2013 18,233 18,408 0,630 -18,225 -51,467 -75,560 -5,19 -21,84 -35,145 -241,1018 -883,1948 -1761,2549 -457,313 -939,525 -1464,645 -263,60 -414,82 -685,101 -131,9 -514,11 -580,3 z m 3733.381,-4365.398 c 0,-1910.9524 -1549.133,-3460.0853 -3460.086,-3460.0853 -1910.952,0 -3460.0848,1549.1329 -3460.0848,3460.0853 0,1910.952 1549.1328,3460.085 3460.0848,3460.085 1910.953,0 3460.086,-1549.133 3460.086,-3460.085 z M 13565,14819 M 7575,9776 c 234,-16 256,-20 370,-80 45,-24 95,-41 140,-48 112,-17 166,-35 225,-74 30,-20 86,-50 124,-66 38,-15 93,-46 120,-67 57,-43 99,-65 137,-74 14,-4 46,-23 70,-42 24,-20 78,-61 119,-92 93,-71 405,-381 485,-483 33,-41 75,-92 93,-114 19,-21 43,-59 54,-85 11,-25 41,-75 66,-110 25,-36 59,-97 74,-135 16,-39 42,-91 58,-116 39,-61 58,-108 86,-214 13,-48 40,-123 59,-166 39,-90 60,-186 70,-315 10,-147 34,-324 45,-345 9,-17 21,-20 71,-20 35,0 73,7 90,16 17,8 65,27 107,40 43,14 118,45 169,69 74,36 117,49 215,65 68,12 155,33 193,47 101,36 173,53 230,53 28,0 102,7 164,16 104,14 128,14 290,-1 188,-18 297,-39 406,-80 37,-14 104,-30 149,-36 97,-12 161,-31 241,-75 33,-17 92,-42 130,-54 72,-24 100,-38 147,-76 15,-12 62,-36 105,-54 43,-18 98,-47 122,-64 24,-17 78,-53 121,-81 130,-84 282,-222 419,-379 178,-205 242,-286 260,-328 10,-24 40,-72 67,-108 26,-36 62,-100 80,-142 18,-42 51,-110 74,-151 27,-50 47,-105 61,-168 26,-118 43,-155 79,-167 26,-10 29,-15 34,-74 18,-210 11,-1134 -9,-1180 -4,-10 -13,-18 -21,-18 -30,0 -63,-66 -88,-179 -15,-63 -32,-121 -38,-130 -7,-9 -24,-30 -39,-47 -14,-18 -39,-65 -54,-105 -16,-41 -45,-96 -66,-124 -20,-27 -49,-76 -64,-108 -15,-32 -47,-79 -70,-105 -23,-26 -55,-66 -72,-89 -30,-41 -63,-80 -207,-241 -38,-42 -91,-91 -117,-109 -26,-18 -56,-43 -66,-57 -11,-14 -47,-43 -79,-64 -32,-22 -74,-56 -92,-76 -18,-20 -65,-52 -105,-72 -39,-20 -89,-52 -110,-70 -22,-18 -73,-44 -120,-61 -45,-15 -102,-44 -127,-63 -51,-41 -74,-51 -182,-79 -42,-11 -122,-39 -178,-61 -113,-45 -246,-70 -370,-70 -41,0 -149,-7 -239,-17 -138,-14 -178,-15 -248,-4 -46,6 -163,16 -261,21 -210,11 -312,30 -407,75 -39,19 -117,45 -174,59 -84,21 -115,34 -167,72 -36,25 -93,55 -127,66 -34,12 -89,40 -122,63 -33,24 -89,57 -123,74 -35,18 -82,49 -105,70 -23,20 -64,52 -92,71 -110,72 -236,194 -398,383 -129,152 -212,272 -261,378 -19,41 -53,99 -75,129 -26,34 -51,83 -66,132 -14,43 -39,106 -56,140 -49,96 -68,162 -89,298 -36,231 -52,292 -83,312 -20,13 -141,9 -193,-7 -27,-8 -78,-34 -112,-59 -62,-44 -88,-53 -257,-90 -38,-9 -95,-29 -126,-45 -88,-46 -153,-61 -314,-71 -82,-6 -206,-15 -275,-21 -69,-7 -156,-9 -195,-6 -38,3 -155,11 -260,17 -235,14 -314,29 -416,79 -44,22 -105,45 -137,50 -144,28 -162,34 -237,81 -43,27 -104,58 -135,69 -32,10 -88,42 -123,69 -36,27 -88,57 -115,66 -28,10 -70,34 -94,55 -24,21 -68,55 -98,76 -80,56 -283,248 -353,335 -33,41 -81,98 -106,126 -120,135 -151,174 -181,234 -18,35 -50,87 -72,117 -22,29 -53,87 -70,130 -16,43 -41,93 -55,111 -35,46 -60,108 -84,204 -11,46 -36,116 -55,157 -39,86 -70,224 -79,361 -3,52 -13,158 -22,234 -13,117 -14,161 -4,270 7,72 18,208 26,301 17,204 26,244 76,356 21,47 45,115 54,150 21,94 41,147 76,200 17,26 45,84 64,129 19,45 52,105 73,133 22,29 51,79 66,112 15,33 42,76 60,95 19,19 48,55 65,80 84,119 420,458 506,512 23,14 66,48 96,76 38,35 77,59 121,75 36,13 87,42 114,64 27,22 81,53 121,67 39,15 92,43 117,62 52,39 102,59 173,69 90,13 168,37 228,71 80,44 161,61 335,70 80,3 195,12 255,18 65,7 143,8 190,4 44,-4 179,-14 300,-22 z" /></g></g><g
     id="l5g14LMf5vlXCukKF44pYq2"
     fill="#d54445"
     style="display:inline"><g
       id="g4"><path
         id="pwNWDdfW6"
         d="m 13158,14863 c -10,-2 -18,-11 -18,-19 0,-11 22,-14 115,-14 91,0 115,3 115,14 0,7 -10,16 -22,20 -26,7 -164,6 -190,-1 z" /><path
         id="pI2PGzJhQ"
         d="m 12895,14849 c -593,-60 -1179,-284 -1677,-641 -709,-506 -1214,-1284 -1388,-2136 -55,-273 -64,-370 -65,-692 0,-300 7,-391 46,-615 201,-1163 989,-2153 2084,-2620 295,-126 604,-208 965,-257 129,-17 651,-17 790,0 674,85 1273,334 1795,748 146,116 448,421 559,564 461,596 702,1236 748,1982 32,519 -72,1101 -282,1577 -445,1012 -1324,1751 -2393,2010 -203,49 -493,91 -633,91 -47,0 -54,-2 -54,-20 0,-18 7,-20 63,-20 89,0 302,-27 447,-56 562,-112 1079,-353 1521,-710 44,-35 82,-64 85,-64 2,0 80,-75 172,-167 399,-399 680,-843 852,-1349 287,-842 244,-1713 -125,-2526 -110,-242 -276,-512 -451,-733 -116,-146 -421,-448 -564,-559 -508,-392 -1045,-622 -1675,-718 -204,-30 -680,-33 -875,-5 -397,58 -706,149 -1050,309 -272,127 -616,356 -826,551 -34,31 -64,57 -66,57 -6,0 -168,162 -168,168 0,2 -31,38 -68,80 -414,463 -709,1080 -816,1707 -63,365 -61,797 4,1148 112,603 367,1151 752,1615 78,93 354,382 366,382 2,0 32,24 65,53 321,279 745,515 1177,655 281,91 652,162 847,162 56,0 63,2 63,20 0,18 -6,20 -72,19 -40,-1 -109,-5 -153,-10 z" /><path
         id="phWuR5XTG"
         d="m 7055,9825 c -60,-7 -175,-16 -255,-19 -174,-9 -255,-26 -335,-70 -60,-34 -138,-58 -228,-71 -71,-10 -121,-30 -173,-69 -25,-19 -78,-47 -117,-62 -40,-14 -94,-45 -121,-67 -27,-22 -78,-51 -114,-64 -44,-16 -83,-40 -121,-75 -30,-28 -73,-62 -96,-76 -86,-54 -422,-393 -506,-512 -17,-25 -46,-61 -65,-80 -18,-19 -45,-62 -60,-95 -15,-33 -44,-83 -66,-112 -21,-28 -54,-88 -73,-133 -19,-45 -47,-103 -64,-129 -35,-53 -55,-106 -76,-200 -9,-35 -33,-103 -54,-150 -50,-112 -58,-152 -76,-356 -40,-464 -40,-462 -22,-626 9,-85 19,-194 23,-244 9,-133 39,-272 78,-356 19,-41 44,-111 55,-157 24,-96 49,-158 84,-204 14,-18 39,-68 55,-111 17,-43 48,-101 70,-130 22,-30 54,-82 72,-117 30,-60 61,-99 181,-234 25,-28 73,-85 106,-126 70,-87 273,-279 353,-335 30,-21 74,-55 98,-76 24,-21 66,-45 94,-55 27,-9 79,-39 115,-66 35,-27 91,-59 123,-69 31,-11 92,-42 135,-69 75,-47 93,-53 237,-81 32,-5 93,-28 137,-50 100,-49 179,-66 361,-74 80,-4 201,-13 270,-20 81,-8 153,-9 205,-4 44,4 154,13 245,18 284,18 334,27 438,82 32,16 89,36 127,45 169,37 195,46 257,90 67,47 139,74 197,74 75,0 86,-26 131,-320 21,-136 40,-202 89,-298 17,-34 42,-97 56,-140 15,-49 40,-98 66,-132 22,-30 56,-88 75,-129 49,-106 132,-226 261,-378 162,-189 288,-311 398,-383 28,-19 69,-51 92,-71 23,-21 70,-52 105,-70 34,-17 90,-50 123,-74 33,-23 88,-51 122,-63 34,-11 91,-41 127,-66 52,-38 83,-51 167,-72 57,-14 135,-40 174,-59 96,-46 198,-64 417,-76 103,-5 210,-14 239,-19 72,-14 182,-12 334,5 72,8 168,15 215,15 135,0 265,24 380,70 56,22 136,50 178,61 108,28 131,38 182,79 25,19 82,48 127,63 47,17 98,43 120,61 21,18 71,50 110,70 40,20 87,52 105,72 18,20 60,54 92,76 32,21 68,50 79,64 10,14 40,39 66,57 26,18 79,67 117,109 144,161 177,200 207,241 17,23 49,63 72,89 23,26 55,73 70,105 15,32 44,81 64,108 21,28 50,83 66,124 15,40 40,87 54,105 15,17 32,38 39,47 6,9 23,67 38,130 25,113 58,179 88,179 25,0 29,32 34,228 4,190 4,192 -17,192 -20,0 -21,-5 -21,-100 0,-95 -1,-101 -29,-132 -42,-49 -47,-63 -92,-230 -22,-84 -52,-173 -65,-198 -13,-25 -47,-92 -75,-150 -28,-58 -66,-127 -85,-153 -19,-26 -45,-71 -58,-100 -25,-54 -111,-166 -257,-334 -92,-104 -150,-160 -269,-260 -41,-34 -104,-87 -140,-117 -36,-31 -96,-72 -133,-91 -37,-20 -90,-51 -116,-70 -27,-20 -82,-49 -122,-65 -41,-17 -105,-49 -142,-72 -42,-25 -106,-52 -170,-69 -56,-16 -147,-44 -203,-64 -132,-45 -232,-61 -496,-76 -173,-9 -259,-9 -420,0 -258,16 -351,32 -518,86 -74,25 -166,54 -205,64 -38,11 -101,39 -139,62 -38,22 -99,54 -137,69 -38,16 -88,42 -111,58 -24,15 -74,45 -112,66 -38,20 -96,59 -130,86 -57,46 -117,93 -241,189 -45,34 -106,100 -265,286 -78,91 -214,292 -248,367 -17,37 -41,82 -55,100 -35,47 -67,113 -92,193 -13,39 -41,113 -62,165 -40,97 -57,161 -68,260 -12,110 -37,224 -56,262 -19,38 -19,38 -97,38 -100,0 -162,-19 -289,-86 -74,-39 -128,-60 -192,-74 -49,-11 -142,-40 -207,-64 -141,-52 -198,-62 -449,-76 -104,-6 -196,-13 -204,-16 -8,-2 -82,0 -165,6 -381,26 -435,35 -566,91 -40,17 -111,39 -159,49 -109,24 -153,40 -219,79 -29,17 -85,44 -124,61 -39,17 -93,46 -119,65 -26,19 -81,51 -121,71 -40,20 -111,64 -157,98 -92,67 -289,244 -361,323 -135,150 -263,310 -311,388 -20,34 -59,96 -87,138 -28,43 -56,94 -62,115 -7,20 -35,80 -63,132 -33,62 -63,140 -88,225 -20,72 -48,162 -63,201 -39,108 -53,191 -72,420 -15,182 -15,236 -5,419 16,268 31,367 76,496 20,57 50,153 66,214 17,64 46,140 70,183 22,40 55,109 74,153 18,43 49,101 69,128 19,27 46,71 59,98 14,26 67,104 118,173 108,143 392,435 509,522 41,31 93,70 115,88 22,17 71,46 110,64 38,18 96,51 129,74 32,23 83,51 114,62 30,11 85,39 122,61 49,29 100,48 188,69 66,16 166,48 223,70 123,48 168,56 399,72 217,15 327,15 548,-1 218,-15 263,-23 386,-73 56,-22 148,-50 206,-63 86,-19 133,-38 263,-104 87,-44 171,-90 187,-101 16,-11 66,-40 112,-64 212,-110 544,-416 751,-690 38,-50 78,-109 89,-131 11,-22 43,-73 70,-114 28,-40 63,-105 79,-143 16,-39 46,-102 68,-141 22,-40 51,-115 65,-167 14,-52 43,-147 65,-210 47,-137 56,-184 76,-400 18,-184 29,-235 59,-256 29,-20 104,-17 156,7 25,11 99,40 165,64 66,24 149,57 185,73 36,16 115,39 175,51 61,12 152,33 203,47 52,14 133,29 180,35 48,5 131,16 184,25 94,15 106,15 275,-5 98,-12 230,-33 293,-47 63,-14 167,-37 230,-51 64,-14 164,-46 230,-73 63,-26 133,-53 156,-59 22,-6 78,-34 124,-61 46,-28 109,-62 140,-74 49,-20 109,-57 271,-167 142,-96 276,-222 417,-393 59,-71 126,-152 150,-180 24,-28 57,-76 74,-106 17,-30 51,-83 75,-118 24,-34 60,-101 79,-149 19,-47 50,-114 69,-147 20,-37 47,-116 69,-199 38,-144 73,-229 103,-246 15,-8 19,-27 21,-110 4,-93 5,-101 24,-101 20,0 20,5 17,185 -4,181 -9,207 -39,211 -6,1 -14,2 -19,3 -16,2 -40,65 -60,160 -14,63 -34,118 -61,168 -23,41 -56,109 -74,151 -18,42 -54,106 -80,142 -27,36 -57,84 -67,108 -18,42 -82,123 -260,328 -137,157 -289,295 -419,379 -43,28 -97,64 -121,81 -24,17 -79,46 -122,64 -43,18 -90,42 -105,54 -47,38 -75,52 -147,76 -38,12 -97,37 -130,54 -80,44 -144,63 -241,75 -45,6 -112,22 -149,36 -112,42 -220,63 -423,81 -182,17 -200,17 -325,1 -72,-10 -152,-17 -177,-17 -52,0 -126,-18 -225,-53 -38,-14 -125,-35 -193,-47 -98,-16 -141,-29 -215,-65 -51,-24 -126,-55 -169,-69 -42,-13 -90,-32 -107,-40 -42,-22 -88,-21 -101,4 -11,21 -35,198 -45,345 -10,129 -31,225 -70,315 -19,43 -46,118 -59,166 -28,106 -47,153 -86,214 -16,25 -42,77 -58,116 -15,38 -49,99 -74,135 -25,35 -55,85 -66,110 -11,26 -35,64 -54,85 -18,22 -60,73 -93,114 -80,102 -392,412 -485,483 -41,31 -95,72 -119,92 -24,19 -56,38 -70,42 -38,9 -80,31 -137,74 -27,21 -82,52 -120,67 -38,16 -94,46 -124,66 -58,39 -113,57 -224,74 -46,7 -98,26 -160,56 -105,53 -149,62 -341,71 -77,3 -176,10 -220,15 -157,17 -231,18 -340,5 z" /><path
         id="pKagvkd2e"
         d="m 14000,4870 c 0,-172 2,-210 14,-210 22,0 26,33 26,210 0,177 -4,210 -26,210 -12,0 -14,-38 -14,-210 z" /></g></g><g
     id="lvghHDLRuyWrOhtFcbNoPd"
     fill="#dd5454"
     style="display:inline"><g
       id="g5"><path
         id="pfH2hveIt"
         d="m 16749.268,11367.633 c 0,1928.185 -1563.103,3491.287 -3491.288,3491.287 -1928.185,0 -3491.2872,-1563.102 -3491.2872,-3491.287 0,-1928.1853 1563.1022,-3491.288 3491.2872,-3491.288 1928.185,0 3491.288,1563.1027 3491.288,3491.288 z M 13045,14854 m 3654.654,-3485.948 c 0,-1900.8094 -1540.911,-3441.7203 -3441.721,-3441.7203 -1900.809,0 -3441.7203,1540.9109 -3441.7203,3441.7203 0,1900.81 1540.9113,3441.721 3441.7203,3441.721 1900.81,0 3441.721,-1540.911 3441.721,-3441.721 z M 13430,14810" /><path
         id="p13Kk9ZXyX"
         d="m 7115,9796 c -5,-3 -93,-10 -195,-15 -238,-14 -283,-22 -409,-71 -57,-22 -157,-54 -223,-70 -88,-21 -139,-40 -188,-69 -37,-22 -92,-50 -122,-61 -31,-11 -82,-39 -114,-62 -33,-23 -91,-56 -129,-74 -39,-18 -88,-47 -110,-64 -22,-18 -74,-57 -115,-88 -117,-87 -401,-379 -509,-522 -51,-69 -104,-147 -118,-173 -13,-27 -40,-71 -59,-98 -20,-27 -51,-85 -69,-128 -19,-44 -52,-113 -74,-153 -24,-43 -53,-119 -70,-183 -16,-61 -45,-155 -64,-210 -46,-130 -54,-181 -72,-415 -19,-247 -19,-341 1,-581 17,-213 31,-297 70,-403 15,-39 43,-129 63,-201 25,-85 55,-163 88,-225 28,-52 56,-112 63,-132 6,-21 34,-72 62,-115 28,-42 67,-104 87,-138 48,-78 176,-238 311,-388 72,-79 269,-256 361,-323 46,-34 117,-78 157,-98 40,-20 95,-52 121,-71 26,-19 80,-48 119,-65 39,-17 95,-44 124,-61 66,-39 110,-55 219,-79 48,-10 119,-32 159,-49 99,-42 166,-58 295,-70 215,-20 453,-33 491,-27 22,3 120,11 219,16 241,14 299,24 439,76 65,24 158,53 207,64 64,14 118,35 192,74 116,62 189,86 259,86 45,0 49,-2 67,-38 19,-38 44,-152 56,-262 11,-99 28,-163 68,-260 21,-52 49,-126 62,-165 25,-80 57,-146 92,-193 14,-18 38,-63 55,-100 34,-75 170,-276 248,-367 159,-186 220,-252 265,-286 124,-96 184,-143 241,-189 34,-27 92,-66 130,-86 38,-21 88,-51 112,-66 23,-16 73,-42 111,-58 38,-15 99,-47 137,-69 38,-23 101,-51 139,-61 39,-11 124,-38 190,-60 168,-56 232,-68 460,-85 243,-18 336,-19 575,-5 238,14 348,32 474,75 56,20 147,48 203,64 64,17 128,44 170,69 37,23 101,55 142,72 40,16 95,45 122,65 26,19 79,50 116,70 37,19 97,60 133,91 36,30 99,83 140,117 119,100 177,156 269,260 146,168 232,280 257,334 13,29 39,74 58,100 19,26 57,95 85,153 28,58 62,125 75,150 13,25 43,114 65,198 44,166 51,182 91,228 26,30 27,37 33,184 9,194 8,559 -2,713 -6,97 -10,121 -24,129 -30,16 -65,102 -103,245 -22,83 -49,162 -69,199 -19,33 -50,100 -69,147 -19,48 -55,115 -79,149 -24,35 -58,88 -75,118 -17,30 -50,78 -74,106 -24,28 -91,109 -150,180 -141,171 -275,297 -417,393 -162,110 -222,147 -271,167 -31,12 -94,46 -140,74 -46,27 -102,55 -124,61 -23,6 -93,33 -156,59 -69,29 -166,59 -240,76 -69,15 -172,37 -230,50 -58,13 -190,33 -293,46 -169,20 -197,21 -280,9 -51,-7 -143,-19 -204,-26 -62,-8 -154,-26 -205,-39 -51,-14 -142,-35 -203,-47 -60,-12 -139,-35 -175,-51 -36,-16 -123,-51 -195,-78 -71,-26 -151,-56 -176,-66 -43,-17 -48,-17 -71,-2 -34,22 -45,68 -63,258 -20,216 -29,263 -76,400 -22,63 -51,158 -65,210 -14,52 -43,127 -65,167 -22,39 -52,102 -68,141 -16,38 -51,103 -79,143 -27,41 -59,92 -70,114 -56,111 -251,338 -447,522 -155,145 -280,240 -393,299 -46,24 -96,53 -112,64 -16,11 -100,57 -187,101 -130,66 -177,85 -263,104 -58,13 -151,41 -206,63 -55,22 -127,45 -160,51 -99,18 -605,47 -629,37 z m 320,-77 c 218,-12 294,-26 417,-75 48,-19 139,-46 202,-59 91,-18 130,-32 186,-65 39,-23 104,-55 143,-71 40,-17 98,-48 129,-70 32,-22 83,-51 115,-65 32,-14 83,-45 113,-68 30,-24 71,-53 90,-65 84,-51 431,-393 488,-481 19,-30 52,-75 73,-100 20,-25 47,-65 59,-90 13,-24 46,-79 75,-121 29,-42 62,-103 74,-135 12,-33 25,-66 30,-75 50,-88 92,-190 111,-269 13,-52 38,-138 57,-190 46,-128 60,-204 77,-406 20,-242 38,-274 151,-274 49,0 75,7 133,35 40,19 114,47 165,63 51,16 112,39 137,52 69,35 145,58 244,75 50,9 132,24 181,35 50,10 117,21 150,25 33,3 108,15 166,26 106,20 106,20 260,0 178,-24 510,-83 601,-106 34,-9 79,-25 99,-36 51,-25 133,-56 211,-77 35,-10 95,-39 135,-65 39,-26 96,-56 126,-67 56,-21 263,-157 399,-261 77,-60 206,-190 300,-305 31,-38 77,-94 103,-124 25,-30 67,-88 93,-128 26,-41 67,-103 91,-140 24,-36 57,-98 72,-138 15,-39 48,-113 73,-163 34,-66 55,-127 75,-219 16,-70 53,-197 81,-282 44,-133 53,-173 62,-281 16,-186 2,-307 -56,-494 -26,-82 -65,-222 -86,-310 -32,-128 -48,-174 -83,-235 -25,-41 -48,-86 -52,-100 -13,-42 -56,-122 -90,-170 -18,-25 -45,-72 -59,-104 -36,-82 -269,-363 -398,-481 -114,-103 -194,-172 -238,-202 -25,-17 -54,-41 -65,-53 -11,-13 -50,-37 -86,-55 -36,-17 -97,-52 -135,-77 -38,-25 -96,-55 -129,-67 -33,-12 -76,-33 -95,-45 -70,-46 -136,-74 -215,-91 -44,-10 -138,-37 -210,-60 -71,-24 -164,-48 -205,-54 -140,-21 -459,-31 -647,-20 -219,12 -340,32 -462,76 -51,18 -134,43 -184,54 -95,21 -169,49 -198,75 -9,8 -61,34 -116,58 -54,24 -121,59 -148,79 -28,19 -75,46 -105,59 -30,14 -76,43 -103,66 -26,23 -69,56 -95,74 -103,70 -241,191 -314,275 -192,220 -299,366 -359,492 -22,47 -58,110 -80,140 -25,35 -49,87 -65,141 -15,47 -46,132 -69,190 -47,114 -55,149 -85,374 -22,154 -36,198 -72,217 -54,29 -268,-28 -433,-116 -79,-42 -122,-58 -202,-74 -56,-11 -143,-36 -195,-56 -51,-20 -127,-43 -168,-51 -127,-25 -466,-37 -684,-25 -229,13 -308,27 -434,76 -51,19 -137,44 -190,55 -73,15 -123,33 -202,73 -58,30 -122,60 -143,67 -22,7 -68,32 -103,56 -35,24 -99,62 -143,84 -44,22 -95,52 -113,68 -18,16 -51,39 -73,52 -130,76 -488,458 -612,654 -21,32 -60,92 -87,133 -27,41 -63,110 -82,153 -18,43 -51,112 -73,152 -24,45 -50,113 -66,178 -14,58 -46,164 -70,235 -60,180 -69,261 -69,630 0,371 8,452 69,630 24,72 55,176 69,232 16,68 40,130 70,185 24,46 56,113 70,151 14,37 45,95 69,130 25,34 55,82 67,107 29,57 119,181 207,284 122,144 349,359 433,411 25,15 62,43 82,61 20,18 70,48 110,67 40,18 104,55 141,80 38,26 75,47 83,47 8,0 66,27 130,61 95,49 138,65 233,86 64,14 159,42 211,63 109,43 190,58 380,69 202,12 267,12 475,0 z" /></g></g><g
     id="l3phWJBxE49AY5hcAWYawb1"
     fill="#e96d6d"
     style="display:inline"><g
       id="g6"><path
         id="pfXPoyE5s"
         d="m 16737.614,11367.835 c 0,1921.847 -1557.965,3479.811 -3479.811,3479.811 -1921.847,0 -3479.8114,-1557.964 -3479.8114,-3479.811 0,-1921.8462 1557.9644,-3479.8106 3479.8114,-3479.8106 1921.846,0 3479.811,1557.9644 3479.811,3479.8106 z M 13045,14840 m 3607.526,-3471.928 c 0,-1875.2343 -1520.178,-3395.4123 -3395.413,-3395.4123 -1875.235,0 -3395.4125,1520.178 -3395.4125,3395.4123 0,1875.235 1520.1775,3395.413 3395.4125,3395.413 1875.235,0 3395.413,-1520.178 3395.413,-3395.413 z M 13558,14755" /><path
         id="pCqR9HusG"
         d="m 6930,9749 c -190,-11 -271,-26 -380,-69 -52,-21 -147,-49 -211,-63 -95,-21 -138,-37 -233,-86 -64,-34 -122,-61 -130,-61 -8,0 -45,-21 -83,-47 -37,-25 -101,-62 -141,-80 -40,-19 -90,-49 -110,-67 -20,-18 -57,-46 -82,-61 -84,-52 -311,-267 -433,-411 -88,-103 -178,-227 -207,-284 -12,-25 -42,-73 -67,-107 -24,-35 -55,-93 -69,-130 -14,-38 -46,-105 -70,-151 -30,-55 -54,-117 -70,-185 -14,-56 -45,-160 -69,-232 -62,-181 -70,-257 -70,-660 1,-401 9,-477 70,-660 24,-71 56,-177 70,-235 16,-65 42,-133 66,-178 22,-40 55,-109 73,-152 19,-43 55,-112 82,-153 27,-41 66,-101 87,-133 124,-196 482,-578 612,-654 22,-13 55,-36 73,-52 18,-16 69,-46 113,-68 44,-22 108,-60 143,-84 35,-24 81,-49 103,-56 21,-7 85,-37 143,-67 79,-40 129,-58 202,-73 53,-11 139,-36 190,-55 128,-50 200,-63 445,-76 161,-9 268,-9 440,0 259,13 330,25 461,76 52,20 139,45 195,56 80,16 123,32 202,74 151,80 336,136 377,114 32,-17 47,-65 68,-215 30,-225 38,-260 85,-374 23,-58 54,-143 69,-190 16,-54 40,-106 65,-141 22,-30 58,-93 80,-140 60,-126 167,-272 359,-492 73,-84 211,-205 314,-275 26,-18 69,-51 95,-74 27,-23 73,-52 103,-66 30,-13 77,-40 105,-59 27,-20 94,-55 148,-79 55,-24 107,-50 116,-58 29,-26 103,-54 198,-75 50,-11 133,-36 184,-54 124,-45 243,-64 476,-77 202,-11 558,0 698,21 39,6 129,31 200,54 72,23 166,50 210,60 79,17 145,45 215,91 19,12 62,33 95,45 33,12 91,42 129,67 38,25 99,60 135,77 36,18 75,42 86,55 11,12 40,36 65,53 44,30 124,99 238,202 129,118 362,399 398,481 14,32 41,79 59,104 34,48 77,128 90,170 4,14 27,59 52,100 35,61 51,107 83,235 21,88 60,228 86,310 51,165 63,237 63,395 1,183 -13,271 -69,440 -28,85 -65,212 -81,282 -20,92 -41,153 -75,219 -25,50 -58,124 -73,163 -15,40 -48,102 -72,138 -24,37 -65,99 -91,140 -26,40 -68,98 -93,128 -26,30 -72,86 -103,124 -94,115 -223,245 -300,305 -136,104 -343,240 -399,261 -30,11 -87,41 -126,67 -40,26 -100,55 -135,65 -78,21 -160,52 -211,77 -20,11 -66,27 -100,36 -96,25 -477,91 -642,111 -142,17 -150,17 -245,0 -55,-10 -133,-23 -174,-27 -41,-5 -118,-18 -170,-28 -52,-11 -136,-27 -186,-36 -99,-17 -175,-40 -244,-75 -25,-13 -86,-36 -137,-52 -51,-16 -125,-44 -165,-63 -80,-39 -122,-43 -157,-19 -39,27 -52,79 -67,258 -17,202 -31,278 -77,406 -19,52 -44,138 -57,190 -19,79 -61,181 -111,269 -5,9 -18,42 -30,75 -12,32 -45,93 -74,135 -29,42 -62,97 -75,121 -12,25 -39,65 -59,90 -21,25 -54,70 -73,100 -57,88 -404,430 -488,481 -19,12 -60,41 -90,65 -30,23 -81,54 -113,68 -32,14 -83,43 -115,65 -31,22 -89,53 -129,70 -39,16 -104,48 -143,71 -56,33 -95,47 -186,65 -63,13 -154,40 -202,59 -123,49 -199,63 -417,75 -209,12 -332,12 -535,0 z m 462,-59 c 228,-11 291,-22 388,-65 48,-22 124,-44 210,-60 117,-23 146,-33 214,-72 44,-25 110,-56 147,-68 37,-13 92,-41 121,-63 29,-22 87,-55 128,-74 42,-19 91,-48 110,-65 19,-16 61,-46 93,-66 61,-39 107,-81 274,-247 160,-160 187,-190 228,-255 21,-33 53,-78 71,-100 18,-22 51,-73 74,-114 23,-41 55,-92 70,-113 16,-22 38,-67 50,-101 11,-34 34,-87 50,-117 60,-111 72,-144 96,-255 13,-63 41,-161 63,-217 42,-110 56,-189 66,-363 9,-146 21,-200 55,-238 27,-30 33,-32 111,-36 82,-3 84,-3 173,43 50,26 132,57 181,70 50,14 128,42 173,65 96,46 123,52 357,81 191,23 250,32 348,54 47,10 83,12 120,6 28,-5 149,-22 267,-39 414,-59 407,-58 510,-106 52,-25 131,-53 176,-64 86,-20 112,-32 186,-85 26,-19 75,-43 108,-55 34,-11 91,-42 128,-69 37,-27 89,-61 116,-77 28,-15 68,-45 90,-65 23,-20 57,-47 76,-60 44,-30 214,-201 260,-263 19,-26 81,-104 138,-173 57,-70 113,-146 124,-168 11,-23 39,-67 60,-99 22,-32 51,-91 64,-130 13,-40 47,-117 74,-172 41,-81 54,-121 70,-209 11,-61 35,-162 54,-225 92,-304 92,-548 3,-837 -19,-60 -42,-156 -52,-214 -21,-132 -37,-179 -84,-255 -21,-33 -48,-89 -60,-125 -12,-36 -40,-90 -63,-120 -22,-30 -58,-91 -79,-135 -38,-79 -63,-113 -202,-274 -123,-143 -342,-353 -411,-395 -17,-10 -51,-36 -74,-58 -24,-22 -74,-54 -110,-70 -37,-17 -95,-50 -129,-74 -34,-25 -93,-55 -132,-69 -39,-13 -90,-37 -113,-53 -73,-50 -103,-61 -230,-86 -68,-13 -164,-40 -214,-59 -50,-19 -122,-40 -160,-46 -106,-18 -527,-25 -708,-12 -147,10 -170,15 -290,55 -72,25 -158,50 -191,56 -129,24 -188,44 -238,78 -28,19 -92,52 -143,72 -51,20 -110,51 -132,68 -22,18 -69,45 -105,61 -37,16 -85,47 -109,69 -24,21 -70,57 -103,79 -33,22 -69,51 -80,63 -11,13 -43,38 -72,56 -28,19 -71,57 -95,85 -24,29 -57,66 -74,83 -17,17 -46,51 -65,76 -18,25 -54,70 -80,100 -75,89 -165,229 -208,323 -22,48 -51,102 -64,120 -37,49 -62,105 -77,172 -7,33 -32,105 -55,160 -55,128 -61,153 -75,305 -18,195 -38,267 -79,290 -31,16 -177,12 -212,-5 -16,-9 -69,-30 -117,-46 -85,-30 -143,-58 -210,-101 -35,-22 -69,-31 -201,-54 -46,-8 -120,-30 -165,-48 -44,-18 -115,-41 -156,-50 -107,-25 -404,-36 -638,-25 -203,9 -267,20 -376,64 -85,34 -146,51 -236,65 -92,15 -144,33 -192,66 -20,14 -81,44 -135,65 -54,22 -114,53 -134,69 -20,16 -74,47 -120,69 -46,22 -100,54 -119,71 -19,17 -58,43 -86,59 -28,16 -66,46 -85,66 -19,21 -52,51 -74,67 -63,46 -300,310 -348,387 -16,25 -44,62 -61,81 -18,19 -50,64 -71,100 -21,36 -54,87 -73,113 -19,26 -49,87 -67,135 -18,48 -51,122 -74,164 -32,57 -48,105 -66,190 -13,62 -41,163 -64,225 -56,157 -64,230 -64,578 0,346 8,421 62,573 21,59 51,161 66,227 20,88 40,144 75,210 26,49 57,120 69,157 12,36 39,90 60,120 21,29 57,86 80,126 23,40 55,87 71,105 15,18 42,56 59,86 33,56 54,79 225,251 137,137 233,223 273,243 17,9 53,35 79,58 27,23 89,61 139,86 49,24 111,59 137,77 26,19 76,44 111,55 35,12 86,36 113,53 73,46 104,57 239,83 77,15 154,37 204,59 98,43 165,55 357,65 212,11 201,11 406,1 z" /></g></g><g
     id="l1WaK47UGUmDxAG6Wl7K3pA"
     fill="#f27e7e"
     style="display:inline"><g
       id="g7"><path
         id="pChFrv8AG"
         d="m 16690.806,11367.876 c 0,1896.314 -1537.266,3433.58 -3433.58,3433.58 -1896.314,0 -3433.5805,-1537.266 -3433.5805,-3433.58 0,-1896.314 1537.2665,-3433.5802 3433.5805,-3433.5802 1896.314,0 3433.58,1537.2662 3433.58,3433.5802 z M 13005,14793 m 3595.627,-3424.671 c 0,-1846.1442 -1496.596,-3342.7396 -3342.74,-3342.7396 -1846.144,0 -3342.7389,1496.5954 -3342.7389,3342.7396 0,1846.144 1496.5949,3342.739 3342.7389,3342.739 1846.144,0 3342.74,-1496.595 3342.74,-3342.739 z M 13415,14710" /><path
         id="piXe1wLQ7"
         d="m 6956,9719 c -192,-10 -259,-22 -357,-65 -50,-22 -127,-44 -204,-59 -135,-26 -166,-37 -239,-83 -27,-17 -78,-41 -113,-53 -35,-11 -85,-36 -111,-55 -26,-18 -88,-53 -137,-77 -50,-25 -112,-63 -139,-86 -26,-23 -62,-49 -79,-58 -40,-20 -136,-106 -273,-243 -171,-172 -192,-195 -225,-251 -17,-30 -44,-68 -59,-86 -16,-18 -48,-65 -71,-105 -23,-40 -59,-97 -80,-126 -21,-30 -48,-84 -60,-120 -12,-37 -43,-108 -69,-157 -35,-66 -55,-122 -75,-210 -15,-66 -45,-168 -66,-227 -55,-155 -63,-225 -63,-603 0,-381 8,-448 65,-608 23,-62 51,-163 64,-225 18,-85 34,-133 66,-190 23,-42 56,-116 74,-164 18,-48 48,-109 67,-135 19,-26 52,-77 73,-113 21,-36 53,-81 71,-100 17,-19 45,-56 61,-81 48,-77 285,-341 348,-387 22,-16 55,-46 74,-67 19,-20 57,-50 85,-66 28,-16 67,-42 86,-59 19,-17 73,-49 119,-71 46,-22 100,-53 120,-69 20,-16 80,-47 134,-69 54,-21 115,-51 135,-65 48,-33 100,-51 192,-66 90,-14 151,-31 235,-65 112,-45 172,-54 394,-65 253,-12 568,0 682,26 40,9 111,32 155,50 45,18 119,40 165,48 132,23 166,32 201,54 67,43 125,71 210,101 48,16 101,37 117,46 34,17 123,20 152,5 41,-23 61,-95 79,-290 14,-152 20,-177 75,-305 23,-55 48,-127 55,-160 15,-67 40,-123 77,-172 13,-18 42,-72 64,-120 43,-94 133,-234 208,-323 26,-30 62,-75 80,-100 19,-25 48,-59 65,-76 17,-17 50,-54 74,-83 24,-28 67,-66 95,-85 29,-18 61,-43 72,-56 11,-12 47,-41 80,-63 33,-22 79,-58 103,-79 24,-22 72,-53 109,-69 36,-16 83,-43 105,-61 22,-17 81,-48 132,-68 51,-20 115,-53 143,-72 50,-34 109,-54 238,-78 33,-6 119,-31 191,-56 120,-40 142,-45 290,-55 185,-13 664,-6 768,11 38,7 110,28 160,47 50,19 146,46 214,59 127,25 157,36 230,86 23,16 74,40 113,53 39,14 98,44 132,69 34,24 92,57 129,74 36,16 86,48 110,70 23,22 57,48 74,58 69,42 288,252 411,395 139,161 164,195 202,274 21,44 57,105 79,135 23,30 51,84 63,120 12,36 39,92 60,125 47,76 63,123 84,255 10,58 33,154 52,214 49,158 66,276 66,451 0,170 -15,266 -69,446 -19,63 -43,164 -54,225 -16,88 -29,128 -70,209 -27,55 -61,132 -74,172 -13,39 -42,98 -64,130 -21,32 -49,76 -60,99 -11,22 -67,98 -124,168 -57,69 -119,147 -138,173 -46,62 -216,233 -260,263 -19,13 -53,40 -76,60 -22,20 -62,50 -90,65 -27,16 -79,50 -116,77 -37,27 -94,58 -128,69 -33,12 -82,36 -108,55 -74,53 -100,65 -186,85 -45,11 -124,39 -176,64 -107,51 -89,47 -797,147 -58,8 -87,7 -150,-6 -113,-24 -167,-33 -358,-56 -234,-29 -261,-35 -357,-81 -45,-23 -123,-51 -173,-65 -49,-13 -131,-44 -181,-70 -83,-43 -96,-46 -144,-42 -97,10 -123,62 -135,273 -10,174 -24,253 -66,363 -22,56 -50,154 -63,217 -24,111 -36,144 -96,255 -16,30 -39,83 -50,117 -12,34 -34,79 -50,101 -15,21 -47,72 -70,113 -23,41 -56,92 -74,114 -18,22 -50,67 -71,100 -41,65 -68,95 -228,255 -167,166 -213,208 -274,247 -32,20 -74,50 -93,66 -19,17 -68,46 -110,65 -41,19 -99,52 -128,74 -29,22 -84,50 -121,63 -37,12 -103,43 -147,68 -68,39 -97,49 -214,72 -86,16 -162,38 -210,60 -97,43 -160,54 -388,65 -209,10 -252,10 -466,-1 z m 607,-89 c 61,-7 128,-22 178,-40 44,-17 128,-41 187,-55 124,-28 211,-57 256,-83 17,-11 63,-31 103,-46 40,-15 100,-45 133,-67 34,-22 93,-55 131,-75 247,-124 575,-426 774,-713 192,-278 322,-552 374,-789 11,-51 33,-134 50,-185 19,-60 35,-143 46,-237 26,-231 48,-307 101,-349 23,-18 40,-21 133,-21 104,0 109,1 189,40 45,21 130,55 190,73 59,19 135,46 170,61 86,37 258,72 442,90 85,9 181,21 212,27 64,13 101,11 373,-20 250,-29 402,-60 500,-103 44,-19 110,-42 146,-51 73,-18 366,-163 499,-248 189,-119 377,-279 475,-404 22,-27 63,-77 92,-111 143,-166 285,-392 343,-547 21,-56 55,-141 74,-189 20,-48 47,-141 61,-210 13,-67 36,-161 50,-208 48,-156 53,-468 10,-618 -8,-28 -22,-76 -30,-105 -8,-28 -22,-92 -30,-142 -21,-125 -50,-217 -94,-305 -21,-41 -46,-97 -57,-125 -10,-27 -37,-80 -61,-117 -23,-37 -58,-98 -77,-135 -18,-37 -68,-113 -109,-168 -88,-116 -290,-335 -362,-392 -27,-22 -59,-50 -70,-63 -11,-12 -40,-36 -65,-53 -25,-17 -66,-48 -92,-69 -26,-21 -80,-56 -120,-77 -40,-20 -99,-54 -130,-74 -31,-20 -60,-37 -63,-37 -3,0 -68,-29 -143,-65 -107,-50 -168,-72 -282,-99 -80,-19 -179,-46 -220,-59 -201,-67 -808,-68 -1019,-2 -42,13 -110,31 -151,40 -151,34 -257,67 -340,109 -47,23 -101,49 -120,56 -50,20 -231,123 -330,189 -109,72 -336,254 -381,306 -19,22 -45,51 -59,66 -64,66 -201,244 -261,339 -76,119 -208,377 -230,449 -11,36 -38,115 -60,175 -29,80 -46,152 -65,270 -49,322 -73,355 -252,344 -51,-3 -85,-12 -142,-40 -41,-19 -93,-41 -115,-48 -22,-7 -80,-32 -130,-56 -59,-29 -143,-58 -245,-83 -85,-22 -188,-51 -228,-65 -104,-36 -252,-50 -522,-50 -261,1 -383,13 -498,49 -42,13 -147,42 -232,64 -104,27 -195,58 -277,95 -67,31 -125,56 -128,56 -3,0 -24,12 -46,26 -22,14 -84,49 -137,78 -289,158 -542,389 -772,703 -96,131 -208,316 -244,401 -15,35 -45,102 -67,150 -24,50 -55,145 -76,227 -19,77 -47,181 -63,230 -35,113 -51,264 -52,500 0,244 16,407 52,520 16,49 44,154 63,232 19,77 49,170 65,205 17,34 49,104 70,155 68,159 247,439 378,589 117,136 300,307 399,374 28,19 70,49 94,68 25,18 81,52 125,74 45,22 101,54 125,71 24,17 81,45 125,64 45,18 108,47 141,63 33,16 137,50 230,74 94,25 196,54 227,65 31,10 107,24 170,30 62,6 129,13 148,15 59,7 439,-3 543,-14 z" /></g></g><g
     id="l2v3lQy3cikqGHOHq16uDY8"
     fill="#fa8d8c"
     style="display:inline"><g
       id="g8"><path
         id="pmbd9wMa4"
         d="m 16638.866,11367.987 c 0,1867.284 -1513.733,3381.017 -3381.017,3381.017 -1867.284,0 -3381.017,-1513.733 -3381.017,-3381.017 0,-1867.284 1513.733,-3381.0168 3381.017,-3381.0168 1867.284,0 3381.017,1513.7328 3381.017,3381.0168 z M 13115,14743 m 3420.429,-3375.313 c 0,-1810.5469 -1467.738,-3278.2848 -3278.284,-3278.2848 -1810.547,0 -3278.2847,1467.7379 -3278.2847,3278.2848 0,1810.546 1467.7377,3278.284 3278.2847,3278.284 1810.546,0 3278.284,-1467.738 3278.284,-3278.284 z M 13490,14640" /><path
         id="pXE9HnPoE"
         d="m 11790,13515 c 0,-34 1,-35 40,-35 39,0 40,1 40,35 0,34 -1,35 -40,35 -39,0 -40,-1 -40,-35 z" /><path
         id="pJYyV9168"
         d="m 14740,13465 c 0,-33 2,-35 35,-35 33,0 35,2 35,35 0,33 -2,35 -35,35 -33,0 -35,-2 -35,-35 z" /><path
         id="pNbZF4Amw"
         d="m 11640,13405 c 0,-34 1,-35 40,-35 39,0 40,1 40,35 0,34 -1,35 -40,35 -39,0 -40,-1 -40,-35 z" /><path
         id="pf5Ik1cZz"
         d="m 14903.121,13400.047 c 0,23.571 -19.107,42.678 -42.677,42.678 -23.57,0 -42.678,-19.107 -42.678,-42.678 0,-23.57 19.108,-42.677 42.678,-42.677 23.57,0 42.677,19.107 42.677,42.677 z M 14822,13403" /><path
         id="pWJl4FBOO"
         d="m 11526,13345 c -3,-9 -6,-30 -6,-46 0,-29 1,-30 43,-27 42,3 42,3 42,43 0,39 -1,40 -36,43 -26,2 -38,-1 -43,-13 z" /><path
         id="pk28APXVE"
         d="m 14950,13299 c 0,-27 18,-50 112,-148 62,-64 121,-117 130,-119 12,-2 18,-12 18,-29 0,-16 7,-27 19,-30 11,-3 21,-15 23,-27 2,-15 11,-22 31,-24 24,-3 27,-8 27,-38 0,-30 3,-34 25,-34 22,0 25,-4 25,-35 0,-33 2,-35 35,-35 33,0 35,2 35,35 0,31 -3,35 -25,35 -22,0 -25,4 -25,35 0,31 -3,35 -25,35 -22,0 -25,4 -25,36 0,27 -5,37 -19,41 -11,3 -21,15 -23,27 -2,13 -11,22 -25,24 -17,2 -23,10 -23,27 0,17 -33,59 -111,139 -99,103 -115,116 -145,116 -31,0 -34,-2 -34,-31 z" /><path
         id="p1Bs9P1MFz"
         d="m 11308,13126 c -11,-8 -18,-26 -18,-45 0,-30 1,-31 43,-31 52,0 67,13 67,57 0,32 -2,33 -37,33 -21,0 -46,-7 -55,-14 z" /><path
         id="pN4E7kTjm"
         d="m 11217,13013 c -4,-3 -7,-22 -7,-40 0,-34 0,-34 43,-31 41,3 42,4 45,41 3,37 3,37 -36,37 -21,0 -42,-3 -45,-7 z" /><path
         id="p1HPqWDnRO"
         d="m 11150,12895 c 0,-34 1,-35 40,-35 39,0 40,1 40,35 0,34 -1,35 -40,35 -39,0 -40,-1 -40,-35 z" /><path
         id="pZSQ6Sfga"
         d="m 11123,10003 c -7,-2 -13,-20 -13,-39 0,-30 3,-34 25,-34 22,0 25,-4 25,-35 0,-35 0,-35 45,-35 45,0 45,0 45,40 0,36 -2,40 -25,40 -22,0 -25,4 -25,35 0,33 -2,35 -32,34 -18,0 -39,-3 -45,-6 z" /><path
         id="pirb8bUH"
         d="m 11243,9843 c -7,-2 -13,-20 -13,-39 0,-34 0,-34 45,-34 45,0 45,0 45,40 0,39 -1,40 -32,39 -18,0 -39,-3 -45,-6 z" /><path
         id="pwk9JKVlw"
         d="m 11350,9656 c 0,-27 7,-39 29,-55 16,-12 41,-21 55,-21 22,0 26,-5 26,-28 0,-18 13,-44 36,-70 29,-34 42,-42 70,-42 32,0 34,2 34,34 0,19 -4,38 -10,41 -5,3 -10,16 -10,29 0,30 -30,56 -63,56 -23,0 -27,4 -27,28 0,43 -28,62 -88,62 -52,0 -52,0 -52,-34 z" /><path
         id="pJUo6LS5J"
         d="m 11630,9400 c 0,-39 1,-40 35,-40 34,0 35,1 35,40 0,39 -1,40 -35,40 -34,0 -35,-1 -35,-40 z" /><path
         id="pa63POuAG"
         d="m 11750,9315 c 0,-33 2,-35 35,-35 33,0 35,2 35,35 0,33 -2,35 -35,35 -33,0 -35,-2 -35,-35 z" /><path
         id="pzDfeySr2"
         d="m 6990,9674 c -19,-2 -86,-9 -148,-15 -63,-6 -139,-20 -170,-30 -31,-11 -133,-40 -227,-65 -93,-24 -197,-58 -230,-74 -33,-16 -96,-45 -141,-63 -44,-19 -101,-47 -125,-64 -24,-17 -80,-49 -125,-71 -44,-22 -100,-56 -125,-74 -24,-19 -66,-49 -94,-68 -99,-67 -282,-238 -399,-374 -131,-150 -310,-430 -378,-589 -21,-51 -53,-121 -70,-155 -16,-35 -46,-128 -65,-205 -19,-78 -47,-183 -63,-232 -37,-117 -52,-279 -52,-545 0,-261 15,-418 52,-535 16,-49 44,-153 63,-230 21,-82 52,-177 76,-227 22,-48 52,-115 67,-150 36,-85 148,-270 244,-401 230,-314 483,-545 772,-703 53,-29 115,-64 137,-78 22,-14 43,-26 46,-26 3,0 61,-25 128,-56 82,-37 173,-68 277,-95 85,-22 190,-51 232,-64 119,-38 239,-49 528,-49 300,0 444,13 552,50 40,14 143,43 228,65 102,25 186,54 245,83 50,24 108,49 130,56 22,7 73,28 113,47 161,77 258,49 295,-84 9,-32 28,-130 41,-219 19,-118 36,-190 65,-270 22,-60 49,-139 60,-175 22,-72 154,-330 230,-449 60,-95 197,-273 261,-339 14,-15 40,-44 59,-66 45,-52 272,-234 381,-306 99,-66 280,-169 330,-189 19,-7 73,-33 120,-56 83,-42 189,-75 340,-109 41,-9 109,-27 151,-40 103,-32 290,-49 539,-49 256,0 440,17 540,51 41,13 140,40 220,59 114,27 175,49 282,99 75,36 140,65 143,65 3,0 32,17 63,37 31,20 90,54 130,74 40,21 94,56 120,77 26,21 67,52 92,69 25,17 54,41 65,53 11,13 43,41 70,63 72,57 274,276 362,392 41,55 91,131 109,168 19,37 54,98 77,135 24,37 51,90 61,117 11,28 36,84 57,125 44,88 73,180 94,305 8,50 22,114 30,142 8,29 22,77 30,105 45,157 40,516 -10,678 -14,47 -37,141 -50,208 -14,69 -41,162 -61,210 -19,48 -53,133 -74,189 -58,155 -200,381 -343,547 -29,34 -70,84 -92,111 -98,125 -286,285 -475,404 -133,85 -426,230 -499,248 -36,9 -102,32 -146,51 -95,42 -254,75 -460,97 -82,8 -195,22 -250,30 -93,13 -188,10 -255,-10 -8,-2 -87,-11 -175,-20 -188,-19 -360,-54 -447,-91 -35,-15 -111,-42 -170,-61 -60,-18 -145,-52 -190,-73 -74,-36 -90,-40 -159,-40 -62,0 -81,4 -103,21 -53,42 -75,118 -101,349 -11,94 -27,177 -46,237 -17,51 -39,134 -50,185 -25,113 -50,184 -123,352 -145,330 -386,653 -677,907 -93,81 -266,202 -348,243 -38,20 -97,53 -131,75 -33,22 -93,52 -133,67 -40,15 -86,35 -103,46 -45,26 -132,55 -256,83 -59,14 -143,38 -187,55 -49,18 -118,33 -178,40 -101,11 -540,21 -603,14 z m 549,-115 c 72,-7 146,-23 245,-54 77,-24 184,-56 236,-70 155,-42 513,-227 705,-363 96,-69 353,-317 442,-427 164,-203 348,-532 412,-735 108,-347 123,-408 142,-592 27,-270 51,-329 148,-382 45,-24 69,-30 146,-34 98,-5 128,2 270,59 206,83 343,131 424,149 134,30 546,91 616,92 85,0 513,-62 640,-93 112,-27 377,-132 525,-207 299,-152 513,-312 670,-503 47,-56 101,-121 121,-143 184,-211 355,-542 420,-813 11,-46 33,-126 49,-178 79,-256 88,-512 27,-740 -14,-49 -45,-171 -71,-270 -42,-164 -54,-196 -136,-360 -149,-298 -236,-424 -442,-640 -197,-206 -378,-342 -651,-488 -166,-88 -255,-125 -386,-161 -47,-13 -140,-40 -206,-59 -150,-44 -283,-58 -553,-58 -324,1 -369,7 -737,110 -296,82 -655,286 -959,545 -106,91 -333,370 -420,519 -172,292 -277,570 -315,840 -33,231 -62,296 -150,339 -40,20 -61,23 -156,23 -128,-1 -168,-12 -363,-106 -67,-32 -166,-71 -220,-85 -53,-15 -160,-47 -237,-71 -132,-42 -152,-46 -345,-61 -174,-13 -233,-14 -395,-4 -208,14 -254,22 -425,75 -63,19 -158,47 -210,61 -134,37 -477,208 -660,330 -144,96 -305,249 -464,441 -257,310 -390,561 -501,945 -82,286 -86,307 -92,555 -6,247 8,471 36,586 42,165 125,426 163,513 90,206 222,425 354,588 129,160 331,351 489,465 164,117 501,291 638,329 50,14 155,45 232,69 77,24 167,49 200,56 125,25 520,30 744,8 z" /><path
         id="pJE9HRgVF"
         d="m 5790,8681 c 0,-41 0,-41 41,-41 40,0 40,0 37,38 -3,35 -5,37 -40,40 -38,3 -38,3 -38,-37 z" /><path
         id="p12mSffNlB"
         d="m 8513.1241,8670.0534 c 0,23.5701 -19.1074,42.6775 -42.6775,42.6775 -23.5702,0 -42.6776,-19.1074 -42.6776,-42.6775 0,-23.5702 19.1074,-42.6776 42.6776,-42.6776 23.5701,0 42.6775,19.1074 42.6775,42.6776 z M 8432,8673" /><path
         id="p1ETQLdvNr"
         d="m 5692,8630 c -6,-11 -12,-34 -12,-50 0,-30 1,-31 43,-28 42,3 42,3 45,51 3,47 3,47 -30,47 -22,0 -37,-7 -46,-20 z" /><path
         id="pXOKbXrMV"
         d="m 8654.8316,8570.0677 c 0,35.8354 -29.0503,64.8858 -64.8858,64.8858 -35.8354,0 -64.8857,-29.0504 -64.8857,-64.8858 0,-35.8355 29.0503,-64.8858 64.8857,-64.8858 35.8355,0 64.8858,29.0503 64.8858,64.8858 z M 8530,8598" /><path
         id="p15MpOBatc"
         d="m 8710,8419 c 0,-32 54,-108 78,-109 6,0 12,-9 12,-20 0,-10 6,-23 13,-27 8,-4 16,-16 20,-25 4,-13 17,-18 42,-18 33,0 35,2 35,35 0,21 -6,38 -14,41 -8,3 -16,14 -19,25 -3,10 -12,19 -21,19 -9,0 -16,8 -16,18 0,9 -14,34 -31,55 -24,30 -37,37 -65,37 -31,0 -34,-2 -34,-31 z" /><path
         id="pTrFGHzlm"
         d="m 5463,8403 c -7,-2 -13,-20 -13,-39 0,-35 0,-35 48,-32 47,3 47,3 50,41 3,37 3,37 -35,36 -21,0 -44,-3 -50,-6 z" /><path
         id="pnhXKDWQX"
         d="m 5397,8313 c -4,-3 -7,-22 -7,-40 0,-34 0,-34 43,-31 41,3 42,4 45,41 3,37 3,37 -36,37 -21,0 -42,-3 -45,-7 z" /><path
         id="pJuBGd7Md"
         d="m 5330,8200 c 0,-23 -4,-30 -20,-30 -16,0 -20,-7 -20,-35 0,-34 1,-35 40,-35 38,0 40,2 40,30 0,23 4,30 20,30 16,0 20,7 20,35 0,34 -1,35 -40,35 -38,0 -40,-2 -40,-30 z" /><path
         id="pHcj5J3Am"
         d="m 10160,6340 c 0,-16 -7,-20 -35,-20 -34,0 -35,-1 -35,-40 0,-40 0,-40 40,-40 36,0 40,3 40,25 0,22 4,25 35,25 33,0 35,2 35,35 0,34 -1,35 -40,35 -33,0 -40,-3 -40,-20 z" /><path
         id="pkIRHaWt3"
         d="m 12390,6315 c 0,-32 2,-35 29,-35 23,0 30,-5 33,-22 2,-19 10,-24 41,-26 38,-3 38,-3 35,35 -3,35 -6,38 -35,41 -25,2 -33,8 -33,23 0,15 -7,19 -35,19 -33,0 -35,-2 -35,-35 z" /><path
         id="p1niJTNPx"
         d="m 9982,6220 c -6,-11 -12,-34 -12,-50 0,-30 1,-31 43,-28 42,3 42,3 45,51 3,47 3,47 -30,47 -22,0 -37,-7 -46,-20 z" /><path
         id="pUij6f5Qo"
         d="m 12674.139,6160.0371 c 0,29.8155 -24.17,53.9858 -53.986,53.9858 -29.815,0 -53.985,-24.1703 -53.985,-53.9858 0,-29.8155 24.17,-53.9858 53.985,-53.9858 29.816,0 53.986,24.1703 53.986,53.9858 z M 12570,6177" /><path
         id="p119Uz8z0b"
         d="m 12690,6058 c 1,-25 12,-45 50,-85 27,-29 56,-53 64,-53 10,0 16,-9 16,-25 0,-14 5,-25 10,-25 6,0 10,-7 10,-15 0,-10 11,-15 35,-15 33,0 35,2 35,35 0,19 -4,35 -10,35 -5,0 -10,7 -10,15 0,8 -9,15 -20,15 -14,0 -20,7 -20,24 0,14 -18,44 -46,75 -38,42 -52,51 -80,51 -32,0 -34,-2 -34,-32 z" /><path
         id="pAQqPjVJy"
         d="m 9768,6006 c -11,-8 -18,-26 -18,-45 0,-30 1,-31 43,-31 52,0 67,13 67,57 0,32 -2,33 -37,33 -21,0 -46,-7 -55,-14 z" /><path
         id="p186HSBVjR"
         d="m 5363,5923 c -7,-2 -13,-20 -13,-39 0,-33 1,-34 43,-34 26,0 37,-3 29,-9 -8,-5 -12,-22 -10,-42 3,-33 4,-34 51,-37 48,-3 48,-3 45,40 -3,40 -5,43 -35,46 -31,3 -33,6 -33,43 0,38 -1,39 -32,38 -18,0 -39,-3 -45,-6 z" /><path
         id="pkQNWrf5D"
         d="m 9697,5913 c -4,-3 -7,-19 -7,-35 0,-21 -5,-28 -20,-28 -16,0 -20,-7 -20,-30 0,-23 -4,-30 -20,-30 -16,0 -20,-7 -20,-35 0,-34 1,-35 40,-35 38,0 40,2 40,30 0,23 4,30 20,30 15,0 20,7 20,29 0,23 5,30 23,33 18,2 23,10 25,41 3,37 3,37 -36,37 -21,0 -42,-3 -45,-7 z" /><path
         id="pzsnmsq0W"
         d="m 5560,5627 c 0,-46 72,-117 118,-117 30,0 32,2 32,34 0,18 -7,39 -15,46 -8,7 -15,23 -15,35 0,18 -7,24 -37,29 -75,12 -83,9 -83,-27 z" /><path
         id="p1C4kwIwSy"
         d="m 5750,5465 c 0,-33 2,-35 35,-35 33,0 35,2 35,35 0,33 -2,35 -35,35 -33,0 -35,-2 -35,-35 z" /><path
         id="phmCcdP6B"
         d="m 5860,5385 c 0,-33 2,-35 35,-35 33,0 35,2 35,35 0,33 -2,35 -35,35 -33,0 -35,-2 -35,-35 z" /><path
         id="pAJuvNq8p"
         d="m 9683,3803 c -7,-2 -13,-20 -13,-39 0,-33 1,-34 43,-34 26,0 37,-3 29,-9 -8,-5 -12,-22 -10,-42 3,-33 4,-34 51,-37 48,-3 48,-3 45,40 -3,40 -5,43 -35,46 -31,3 -33,6 -33,43 0,38 -1,39 -32,38 -18,0 -39,-3 -45,-6 z" /><path
         id="pzgUwudbh"
         d="m 9840,3549 c 0,-29 10,-44 58,-92 47,-47 64,-57 91,-57 34,0 34,0 27,58 -9,78 -40,109 -118,118 -58,7 -58,7 -58,-27 z" /><path
         id="p1DuB0hd5v"
         d="m 10050,3365 c 0,-33 2,-35 35,-35 31,0 35,-3 35,-25 0,-22 4,-25 35,-25 33,0 35,2 35,35 0,33 -2,35 -35,35 -31,0 -35,3 -35,25 0,22 -4,25 -35,25 -33,0 -35,-2 -35,-35 z" /></g></g><g
     id="l21NvZNUs5zwaWwOay86vmb"
     fill="#ff9897"
     style="display:inline"><g
       id="g9"><path
         id="pVI0gU5a5"
         d="m 16573.749,11367.497 c 0,1831.449 -1484.683,3316.131 -3316.132,3316.131 -1831.449,0 -3316.1319,-1484.682 -3316.1319,-3316.131 0,-1831.4496 1484.6829,-3316.1324 3316.1319,-3316.1324 1831.449,0 3316.132,1484.6828 3316.132,3316.1324 z M 12970,14669 m 410,-760 c 0,-8 20,-10 60,-7 33,2 60,1 60,-4 0,-4 13,-8 29,-8 42,0 244,-37 331,-60 41,-12 102,-25 135,-30 33,-5 65,-16 71,-25 6,-8 35,-21 63,-28 28,-6 51,-15 51,-19 0,-5 13,-8 30,-8 16,0 33,-6 37,-14 11,-19 107,-66 135,-66 29,0 218,-110 218,-127 0,-7 11,-13 25,-13 16,0 25,-6 25,-15 0,-8 9,-15 20,-15 11,0 20,-7 20,-15 0,-8 7,-15 15,-15 8,0 15,-4 15,-10 0,-5 9,-10 20,-10 11,0 20,-7 20,-15 0,-8 6,-15 13,-15 29,0 68,-27 82,-57 9,-19 23,-33 34,-33 19,0 44,-24 54,-52 4,-10 16,-18 29,-18 30,0 118,-87 118,-116 0,-16 11,-28 38,-41 27,-13 38,-25 40,-45 2,-18 11,-28 28,-32 13,-4 24,-12 24,-20 0,-7 7,-19 15,-26 8,-7 15,-20 15,-30 0,-10 9,-20 20,-23 13,-3 22,-17 26,-36 4,-17 12,-31 19,-31 17,0 65,-74 65,-100 0,-11 7,-20 15,-20 9,0 15,-9 15,-25 0,-14 6,-25 13,-25 18,0 117,-190 117,-223 0,-14 7,-27 15,-31 9,-3 15,-18 15,-36 0,-16 5,-30 10,-30 6,0 10,-11 10,-24 0,-13 7,-26 15,-30 8,-3 15,-17 15,-32 0,-35 21,-104 32,-104 4,0 8,-10 8,-22 0,-13 13,-75 29,-139 29,-113 61,-300 61,-353 0,-14 3,-26 8,-26 8,0 10,-413 1,-420 -3,-3 -11,-50 -18,-105 -6,-54 -23,-148 -36,-208 -14,-60 -25,-120 -25,-133 0,-13 -4,-24 -10,-24 -5,0 -10,-10 -10,-21 0,-31 -22,-99 -32,-99 -4,0 -8,-13 -8,-30 0,-16 -4,-30 -10,-30 -5,0 -10,-11 -10,-25 0,-14 -4,-25 -10,-25 -5,0 -10,-11 -10,-25 0,-14 -4,-25 -9,-25 -5,0 -12,-16 -15,-35 -4,-19 -11,-35 -16,-35 -6,0 -10,-9 -10,-20 0,-11 -4,-20 -9,-20 -4,0 -23,-32 -40,-71 -18,-39 -39,-78 -47,-86 -7,-8 -14,-21 -14,-29 0,-8 -4,-14 -10,-14 -5,0 -12,-11 -16,-25 -3,-14 -10,-25 -15,-25 -5,0 -9,-5 -9,-11 0,-12 -60,-103 -72,-107 -4,-2 -8,-8 -8,-14 0,-5 -6,-15 -12,-22 -7,-7 -22,-25 -33,-40 -67,-92 -251,-285 -370,-388 -347,-300 -830,-511 -1325,-579 -137,-19 -458,-16 -600,5 -374,57 -708,178 -1013,371 -49,30 -92,55 -98,55 -5,0 -9,3 -9,8 0,4 -36,34 -81,67 -44,33 -98,77 -121,98 -23,21 -50,37 -64,37 -18,0 -24,5 -24,22 0,29 -38,68 -67,68 -18,0 -23,6 -23,24 0,22 -15,41 -120,155 -8,9 -28,36 -44,59 -16,23 -33,42 -37,42 -5,0 -9,6 -9,13 0,7 -11,24 -23,38 -13,13 -26,29 -28,34 -2,6 -37,66 -78,134 -160,267 -259,541 -322,886 -19,102 -22,157 -23,370 0,268 12,371 69,595 79,310 218,611 399,863 31,43 56,79 56,81 0,1 20,25 45,52 25,27 45,57 45,66 0,10 6,18 13,18 7,0 57,44 109,98 53,53 103,102 111,107 34,24 223,172 239,188 10,9 24,17 32,17 8,0 18,5 21,10 4,6 23,19 43,30 20,12 51,29 67,40 34,21 243,126 293,147 17,7 47,19 65,27 17,8 60,22 95,32 35,10 65,21 68,26 3,4 18,8 33,8 15,0 31,4 37,9 5,6 36,14 69,20 33,6 111,19 174,31 62,11 126,20 142,20 15,0 30,4 33,8 3,5 30,7 59,4 34,-3 57,0 61,7 10,15 236,15 236,0 z m 1700,-704 c 52,-52 92,-95 90,-95 -3,0 -48,43 -100,95 -52,52 -92,95 -90,95 3,0 48,-43 100,-95 z m -3720,-110 c -7,-8 -20,-15 -28,-15 -13,0 -12,3 4,15 25,19 40,19 24,0 z m 84,-3454 c 9,-8 16,-17 16,-22 0,-16 -24,-9 -54,14 -28,23 -28,23 -3,22 14,-1 33,-7 41,-14 z m 102,-117 c -2,-6 2,-22 10,-35 9,-13 -3,-4 -26,20 -29,32 -37,47 -28,52 15,10 51,-20 44,-37 z" /><path
         id="pIXK3FvyK"
         d="m 6985,9600 c -186,-8 -230,-16 -420,-75 -77,-24 -182,-55 -232,-69 -96,-26 -274,-111 -462,-218 -434,-249 -801,-668 -1019,-1164 -38,-87 -121,-348 -163,-513 -30,-120 -42,-337 -36,-621 7,-284 7,-286 92,-580 111,-384 244,-635 501,-945 159,-192 320,-345 464,-441 183,-122 526,-293 660,-330 52,-14 151,-43 220,-64 160,-49 206,-58 370,-70 184,-14 333,-12 535,4 152,13 185,19 310,59 77,25 184,56 237,71 54,14 153,53 220,85 179,86 238,105 333,105 98,1 159,-25 200,-83 36,-53 51,-109 76,-278 38,-270 143,-548 315,-840 87,-149 314,-428 420,-519 123,-105 268,-212 377,-277 159,-96 393,-212 474,-236 37,-10 131,-38 208,-60 77,-23 176,-48 220,-56 170,-33 687,-36 876,-6 68,11 325,83 474,133 108,36 384,180 521,271 133,88 278,212 402,342 206,216 293,342 442,640 82,164 94,196 136,360 26,99 57,221 71,270 63,237 53,539 -27,800 -16,52 -38,132 -49,178 -65,271 -236,602 -420,813 -20,22 -74,87 -121,143 -157,191 -371,351 -670,503 -148,75 -413,180 -525,207 -67,17 -330,59 -500,81 -178,23 -167,24 -497,-26 -350,-52 -405,-67 -743,-203 -136,-55 -174,-64 -242,-58 -79,8 -158,48 -190,96 -36,54 -52,125 -72,319 -19,184 -34,245 -142,592 -64,203 -248,532 -412,735 -89,110 -346,358 -442,427 -192,136 -550,321 -705,363 -52,14 -159,46 -236,70 -99,31 -173,47 -245,54 -151,15 -400,19 -584,11 z m 245,-531 c 0,-8 20,-10 60,-7 33,2 60,2 60,-2 0,-5 135,-28 228,-38 23,-2 42,-8 42,-13 0,-5 18,-9 39,-9 22,0 41,-3 43,-8 4,-11 110,-42 142,-42 15,0 29,-7 32,-15 4,-8 24,-18 45,-21 21,-4 39,-10 39,-13 0,-12 69,-41 96,-41 13,0 27,-7 30,-15 4,-8 14,-15 24,-15 29,0 50,-11 50,-26 0,-8 9,-14 19,-14 30,0 51,-11 51,-26 0,-8 10,-14 25,-14 16,0 25,-6 25,-15 0,-8 7,-15 15,-15 8,0 15,-4 15,-10 0,-5 7,-10 15,-10 8,0 15,-4 15,-10 0,-5 9,-10 20,-10 11,0 20,-7 20,-15 0,-8 7,-15 15,-15 8,0 15,-4 15,-10 0,-5 9,-10 20,-10 13,0 24,-10 30,-25 6,-15 17,-25 30,-25 13,0 24,-10 30,-25 6,-15 17,-25 30,-25 24,0 159,-137 160,-163 0,-10 11,-22 25,-27 15,-6 25,-17 25,-29 0,-10 9,-21 20,-24 12,-3 20,-14 20,-26 0,-12 6,-21 15,-21 8,0 15,-9 15,-20 0,-11 7,-20 15,-20 8,0 15,-9 15,-20 0,-11 5,-20 10,-20 6,0 10,-7 10,-15 0,-8 5,-15 10,-15 6,0 10,-7 10,-15 0,-8 6,-15 13,-15 16,0 47,-52 47,-79 0,-12 6,-21 13,-21 15,0 77,-121 77,-150 0,-11 9,-29 20,-40 12,-12 20,-33 20,-54 0,-19 6,-36 14,-39 8,-3 15,-27 18,-58 3,-29 11,-55 17,-57 6,-2 11,-14 11,-27 0,-13 9,-61 20,-106 11,-46 22,-109 26,-141 4,-32 9,-58 13,-58 3,0 4,-22 3,-50 -3,-32 0,-50 7,-50 7,0 11,-40 11,-120 0,-81 -4,-120 -11,-120 -7,0 -10,-17 -7,-45 2,-25 0,-45 -4,-45 -5,0 -8,-15 -8,-32 0,-18 -9,-73 -20,-122 -11,-50 -20,-103 -20,-118 0,-15 -4,-28 -10,-28 -5,0 -10,-10 -10,-21 0,-29 -21,-99 -30,-99 -4,0 -10,-18 -14,-40 -3,-22 -11,-40 -16,-40 -6,0 -10,-11 -10,-25 0,-14 -4,-25 -9,-25 -5,0 -12,-10 -16,-22 -11,-41 -48,-118 -57,-118 -4,0 -8,-9 -8,-20 0,-11 -4,-20 -9,-20 -5,0 -13,-10 -17,-22 -3,-12 -13,-28 -20,-36 -8,-7 -14,-20 -14,-28 0,-8 -4,-14 -10,-14 -5,0 -10,-7 -10,-15 0,-8 -4,-15 -10,-15 -5,0 -10,-7 -10,-15 0,-8 -4,-15 -9,-15 -5,0 -12,-8 -15,-17 -4,-10 -19,-32 -34,-50 -15,-17 -38,-47 -52,-65 -14,-18 -81,-89 -150,-158 -212,-212 -458,-367 -755,-477 -411,-152 -841,-173 -1245,-62 -41,12 -88,23 -105,26 -16,3 -34,9 -40,13 -5,5 -39,19 -75,33 -103,39 -252,111 -342,166 -141,85 -330,230 -391,301 -12,14 -44,47 -71,75 -27,27 -55,60 -63,73 -9,12 -22,22 -29,22 -8,0 -14,8 -14,18 0,10 -13,32 -30,50 -16,18 -30,35 -30,37 0,2 -24,42 -54,87 -143,221 -250,506 -292,782 -19,122 -21,369 -4,486 44,312 153,600 319,848 31,46 61,91 66,99 6,8 25,31 43,51 17,20 32,39 32,42 0,6 221,230 228,230 2,0 36,26 75,58 70,56 146,110 177,125 8,4 29,16 45,26 25,16 112,61 285,146 14,7 40,15 59,19 19,3 52,15 75,25 47,22 234,65 351,82 44,6 87,14 95,17 8,3 38,4 66,3 29,-2 55,2 58,8 10,15 176,15 176,0 z m 1366,-501 c 29,-33 29,-33 -3,-4 -31,28 -38,36 -30,36 2,0 16,-15 33,-32 z m 2854,-1959 c 3,-3 48,-11 100,-18 101,-13 247,-47 344,-81 33,-11 71,-20 85,-20 15,0 34,-9 44,-20 10,-12 29,-20 47,-20 16,0 39,-9 49,-19 26,-26 75,-51 101,-51 11,0 20,-7 20,-15 0,-8 9,-15 19,-15 30,0 51,-11 51,-26 0,-8 7,-14 15,-14 8,0 15,-4 15,-10 0,-5 14,-10 30,-10 23,0 30,-5 30,-19 0,-13 10,-21 34,-25 26,-5 38,-14 48,-36 7,-17 19,-30 27,-30 19,0 51,-29 51,-47 0,-7 8,-13 18,-13 24,0 132,-106 132,-130 0,-12 13,-25 35,-36 25,-11 35,-23 35,-39 0,-16 7,-25 25,-29 18,-5 26,-15 31,-41 3,-20 12,-35 20,-35 15,0 44,-50 44,-75 0,-8 7,-15 15,-15 9,0 15,-9 15,-25 0,-14 6,-25 13,-25 16,0 87,-142 87,-175 0,-14 5,-25 10,-25 6,0 10,-11 10,-24 0,-13 6,-26 13,-29 16,-6 37,-72 37,-116 0,-17 5,-31 10,-31 6,0 10,-11 10,-24 0,-13 9,-68 20,-121 11,-53 20,-112 20,-131 0,-19 4,-34 9,-34 4,0 6,-31 3,-70 -3,-48 -1,-70 7,-70 6,0 11,-9 11,-20 0,-11 -5,-20 -11,-20 -8,0 -10,-21 -7,-65 2,-36 1,-65 -3,-65 -3,0 -9,-31 -12,-68 -6,-59 -28,-162 -69,-319 -6,-24 -14,-43 -19,-43 -5,0 -12,-18 -15,-40 -4,-22 -10,-40 -15,-40 -4,0 -13,-19 -20,-42 -6,-24 -14,-45 -18,-48 -4,-3 -15,-24 -25,-47 -11,-24 -23,-43 -27,-43 -4,0 -13,-16 -19,-35 -6,-19 -16,-35 -21,-35 -5,0 -9,-7 -9,-15 0,-8 -4,-15 -10,-15 -5,0 -10,-7 -10,-15 0,-8 -4,-15 -10,-15 -5,0 -10,-4 -10,-10 0,-5 -8,-19 -17,-31 -37,-44 -49,-58 -68,-86 -40,-56 -242,-251 -325,-312 -139,-104 -291,-186 -495,-271 -27,-11 -147,-46 -220,-64 -262,-64 -575,-64 -855,0 -263,59 -568,211 -791,394 -47,38 -84,60 -103,62 -26,3 -32,8 -36,36 -5,35 -104,160 -127,161 -7,1 -13,9 -13,19 0,9 -15,34 -33,54 -48,56 -104,149 -168,283 -181,376 -223,747 -130,1140 43,181 139,404 240,558 28,43 51,79 51,81 0,2 16,21 35,42 19,21 35,46 35,56 0,10 6,18 13,18 16,0 187,171 187,188 0,6 8,12 18,12 9,0 39,20 65,43 26,24 58,49 72,55 14,7 28,19 31,27 4,8 14,15 23,15 9,0 22,5 28,11 6,6 20,16 31,23 11,6 49,28 84,49 36,20 71,37 79,37 8,0 32,11 54,25 22,13 47,25 55,25 8,0 38,12 65,25 28,14 60,25 72,25 12,0 25,5 28,10 3,6 19,10 34,10 15,0 31,4 37,10 5,5 79,19 164,30 85,12 161,25 168,28 16,8 295,9 302,1 z m 1315,-589 c 21,-22 37,-40 34,-40 -3,0 -23,18 -44,40 -21,22 -37,40 -34,40 3,0 23,-18 44,-40 z m -2945,-45 c -7,-8 -20,-15 -28,-15 -13,0 -12,3 4,15 25,19 40,19 24,0 z M 5477,5794 c -3,-4 -14,-3 -24,0 -15,6 -15,8 -3,16 16,10 39,-4 27,-16 z m 159,-180 c 12,5 15,2 10,-10 -4,-11 2,-26 15,-41 13,-12 20,-23 18,-23 -3,0 -25,21 -49,47 -25,26 -37,41 -28,34 10,-7 25,-10 34,-7 z M 9797,3674 c -3,-4 -14,-3 -24,0 -15,6 -15,8 -3,16 16,10 39,-4 27,-16 z m 117,-141 c 17,7 71,-47 61,-63 -4,-6 -1,-17 5,-25 29,-35 0,-10 -55,47 -33,34 -52,56 -43,49 10,-7 24,-11 32,-8 z" /></g></g><g
     id="l5trUhWfxVaOpqMu6NgQq2h"
     fill="#ffffff"
     style="display:inline"><g
       id="g10"><path
         id="pPowlHDBN"
         d="m 3095,19113 c -233,-21 -499,-133 -545,-228 -25,-52 -34,-179 -21,-280 8,-67 14,-84 36,-102 32,-28 57,-24 135,22 197,117 355,165 541,165 222,0 360,-76 404,-223 52,-177 -29,-301 -274,-419 -410,-197 -465,-226 -548,-298 -135,-115 -193,-207 -234,-371 -30,-117 -23,-307 15,-424 91,-281 321,-448 684,-496 233,-31 604,43 718,143 47,42 57,88 52,250 -3,128 -5,138 -27,162 -14,14 -33,26 -42,26 -10,0 -60,-22 -111,-49 -182,-97 -362,-140 -505,-120 -165,23 -263,118 -266,255 -2,83 19,131 81,194 69,68 132,104 367,210 338,151 458,240 568,422 54,90 77,174 84,303 23,460 -268,785 -760,850 -108,14 -251,17 -352,8 z" /><path
         id="pK2Obgf0X"
         d="m 9999.2662,17787.189 c 0,728.933 -590.9164,1319.849 -1319.8486,1319.849 -728.9323,0 -1319.8487,-590.916 -1319.8487,-1319.849 0,-728.932 590.9164,-1319.848 1319.8487,-1319.848 728.9322,0 1319.8486,590.916 1319.8486,1319.848 z M 8410,19106 m 470,-449 c 118,-40 213,-104 281,-189 55,-69 114,-196 138,-295 69,-284 55,-679 -31,-904 -95,-252 -260,-365 -549,-376 -222,-9 -346,34 -479,166 -117,117 -176,247 -212,466 -18,111 -15,443 6,565 54,331 194,512 444,575 75,19 337,14 402,-8 z" /><path
         id="p13uHVBygn"
         d="m 4929,19081 c -31,-5 -71,-18 -87,-30 -26,-18 -32,-30 -36,-74 -3,-28 -5,-587 -3,-1240 2,-1189 2,-1189 25,-1208 13,-10 43,-24 65,-31 58,-16 289,-16 355,1 94,23 88,-8 90,528 1,257 1,473 2,478 0,7 164,10 473,10 472,0 472,0 477,-488 5,-520 2,-489 52,-517 9,-6 61,-15 116,-21 162,-19 338,9 356,56 3,9 6,570 6,1246 0,1205 0,1229 -19,1248 -32,32 -98,45 -236,45 -161,1 -213,-7 -248,-40 -27,-25 -27,-25 -27,-549 0,-525 0,-525 -142,-526 -522,-2 -800,0 -805,4 -3,3 -6,239 -6,525 -2,496 -3,521 -21,541 -10,11 -35,25 -55,31 -49,14 -262,21 -332,11 z" /><path
         id="pOhVHsErd"
         d="m 13175,19083 c -51,-7 -86,-25 -96,-50 -9,-25 7,-115 31,-178 13,-32 173,-493 195,-560 7,-22 43,-125 80,-230 37,-104 93,-266 125,-360 32,-93 87,-249 121,-345 34,-96 70,-200 79,-230 10,-30 42,-120 70,-200 28,-80 64,-183 80,-230 63,-190 67,-194 198,-210 88,-11 408,-5 466,9 78,19 57,-32 402,966 75,215 144,415 156,445 11,30 74,210 140,400 245,704 248,714 195,754 -27,20 -39,21 -235,21 -179,0 -211,-2 -239,-18 -18,-9 -37,-25 -42,-35 -5,-9 -48,-135 -96,-280 -86,-262 -86,-262 -568,-260 -482,3 -482,3 -569,267 -60,182 -94,272 -110,287 -16,16 -44,26 -88,33 -62,10 -231,12 -295,4 z m 1412,-1015 c -2,-7 -82,-248 -177,-535 -154,-464 -190,-560 -190,-509 0,8 -76,243 -170,523 -93,279 -170,514 -170,521 0,9 78,12 356,12 281,0 355,-3 351,-12 z" /><path
         id="pbHviGOkw"
         d="m 16083,19081 c -28,-5 -62,-17 -76,-27 -25,-19 -25,-19 -31,-304 -3,-157 -4,-699 -3,-1205 2,-920 2,-920 26,-962 37,-65 88,-84 236,-90 66,-3 171,0 233,5 196,18 238,52 367,297 32,61 65,124 75,140 9,17 44,82 78,145 33,63 141,266 239,451 98,184 227,437 288,562 60,125 113,227 118,227 5,0 6,-10 2,-22 -9,-27 -18,-1678 -10,-1725 4,-23 16,-38 43,-55 33,-20 52,-23 172,-26 145,-4 208,6 241,39 19,19 19,43 19,1213 0,1311 3,1236 -60,1290 -18,14 -44,29 -58,34 -15,4 -115,7 -222,7 -195,0 -195,0 -249,-30 -89,-49 -106,-75 -344,-525 -22,-41 -70,-131 -107,-200 -348,-646 -523,-988 -581,-1135 -12,-33 -25,-63 -28,-67 -4,-4 -5,423 -3,948 4,1069 10,982 -67,1004 -49,14 -234,21 -298,11 z" /><path
         id="pGvDnnV7E"
         d="m 10652,19072 c -18,-4 -48,-19 -66,-34 -27,-22 -37,-39 -45,-80 -6,-34 -9,-462 -8,-1203 2,-1135 2,-1150 22,-1185 12,-19 38,-44 60,-55 37,-18 64,-20 340,-23 609,-7 880,27 1120,142 317,152 519,437 579,815 59,370 8,772 -132,1045 -59,115 -115,188 -212,279 -162,150 -369,236 -680,283 -78,11 -212,16 -525,19 -231,2 -435,1 -453,-3 z m 876,-433 c 159,-24 293,-90 389,-192 136,-145 198,-327 210,-607 9,-230 -18,-391 -94,-549 -38,-79 -59,-108 -127,-176 -152,-151 -279,-192 -628,-202 -218,-6 -218,-6 -218,864 0,478 2,872 4,874 9,9 392,-1 464,-12 z" /><path
         id="pKNIkpClL"
         d="m 13115,13941 c -3,-5 -29,-7 -59,-4 -33,3 -56,1 -60,-5 -3,-6 -21,-8 -40,-5 -19,3 -36,1 -40,-6 -4,-6 -19,-8 -35,-5 -16,3 -31,1 -35,-4 -3,-6 -15,-8 -25,-5 -10,3 -22,0 -25,-6 -4,-6 -18,-8 -31,-5 -12,3 -26,1 -30,-5 -3,-6 -11,-9 -16,-6 -5,4 -15,3 -21,-2 -7,-4 -17,-8 -23,-8 -33,-2 -96,-18 -101,-26 -3,-5 -9,-7 -14,-4 -5,3 -21,0 -37,-7 -15,-6 -31,-12 -35,-13 -5,-2 -10,-4 -13,-5 -3,-1 -9,-4 -15,-5 -5,-1 -12,-4 -15,-5 -3,-1 -9,-4 -15,-5 -5,-1 -11,-3 -12,-4 -2,-2 -14,-5 -28,-7 -13,-2 -35,-11 -47,-19 -13,-9 -23,-13 -23,-9 0,3 -16,-4 -35,-16 -19,-12 -35,-19 -35,-15 0,6 -212,-102 -265,-136 -16,-10 -46,-28 -65,-39 -60,-35 -72,-43 -195,-135 -453,-340 -777,-830 -920,-1395 -59,-231 -69,-324 -69,-625 0,-245 3,-295 22,-400 82,-446 233,-795 489,-1133 111,-146 351,-389 471,-477 45,-33 82,-63 82,-67 0,-5 4,-8 9,-8 6,0 49,-25 98,-55 164,-104 398,-214 573,-270 30,-10 61,-22 68,-28 7,-5 15,-8 17,-5 3,3 47,-5 98,-18 195,-50 627,-92 744,-73 21,4 89,12 152,18 63,7 169,23 235,38 67,14 126,26 131,27 6,1 15,4 20,8 6,3 26,9 45,14 45,10 40,9 74,23 16,6 36,13 45,15 9,2 30,9 46,15 17,7 53,21 80,32 188,71 501,261 670,407 119,103 303,296 370,388 11,15 26,33 33,40 6,7 12,17 12,22 0,6 4,12 8,14 12,4 72,95 72,107 0,6 5,11 10,11 6,0 10,7 10,15 0,8 5,15 11,15 5,0 7,5 4,10 -3,6 -1,10 4,10 6,0 11,7 11,15 0,8 5,15 11,15 5,0 7,5 4,10 -3,6 -2,10 4,10 5,0 15,16 22,35 7,19 17,35 22,35 4,0 5,5 2,10 -3,6 -1,10 5,10 6,0 8,5 5,10 -3,6 -1,10 5,10 6,0 8,5 5,10 -3,6 -1,10 5,10 6,0 8,5 5,10 -3,6 -1,10 4,10 6,0 11,9 11,20 0,11 4,20 9,20 8,0 21,34 20,54 -1,5 4,12 9,15 6,3 12,15 14,26 1,11 6,22 10,25 3,3 8,14 10,25 1,11 7,23 11,26 5,4 10,18 10,33 1,14 5,26 8,26 6,0 34,86 34,105 0,6 3,13 8,16 4,3 9,20 10,37 1,18 6,32 11,32 4,0 6,9 3,20 -3,11 -1,20 5,20 6,0 7,11 4,25 -4,16 -2,25 5,25 6,0 9,9 6,20 -3,11 -1,20 5,20 6,0 8,11 6,25 -3,14 -1,25 5,25 5,0 7,13 4,30 -4,19 -2,30 5,30 7,0 9,14 5,40 -3,24 -1,40 5,40 7,0 9,16 5,40 -3,22 -2,40 2,40 3,0 6,108 6,240 0,132 -3,240 -7,240 -3,0 -4,18 -1,40 4,26 2,40 -6,40 -8,0 -9,13 -5,40 4,26 3,40 -4,40 -7,0 -9,11 -5,30 3,17 1,30 -4,30 -6,0 -8,11 -5,25 2,14 0,25 -5,25 -6,0 -8,11 -5,25 2,14 0,25 -6,25 -6,0 -8,9 -5,20 3,11 1,20 -5,20 -6,0 -8,9 -5,20 3,11 1,20 -5,20 -6,0 -8,9 -5,20 3,11 0,20 -6,20 -5,0 -8,7 -5,15 4,8 2,15 -4,15 -5,0 -7,11 -5,23 3,13 -2,30 -9,38 -8,8 -13,20 -10,27 2,6 -1,12 -7,12 -6,0 -8,7 -5,15 4,8 2,15 -2,15 -5,0 -10,14 -10,32 -1,17 -8,36 -16,42 -7,6 -12,19 -10,29 2,9 -3,20 -11,23 -9,3 -13,13 -10,24 3,10 -4,27 -14,37 -11,11 -18,24 -15,31 6,18 -109,232 -125,232 -8,0 -12,4 -9,9 9,14 -5,41 -21,41 -8,0 -11,5 -8,10 9,15 -54,110 -72,110 -8,0 -11,4 -8,10 8,13 -24,60 -42,60 -8,0 -11,4 -8,10 8,13 -54,90 -72,90 -8,0 -12,4 -9,9 8,13 -33,61 -61,72 -14,5 -21,14 -17,20 9,15 -105,129 -129,129 -9,0 -20,8 -24,18 -10,28 -35,52 -55,52 -10,0 -22,10 -28,24 -10,27 -60,66 -84,66 -9,0 -16,7 -16,15 0,8 -9,15 -20,15 -11,0 -20,5 -20,10 0,6 -7,10 -15,10 -8,0 -15,7 -15,15 0,8 -9,15 -20,15 -11,0 -19,6 -17,13 1,7 -10,13 -26,15 -15,2 -25,7 -22,12 9,14 -210,141 -232,133 -15,-5 -107,41 -133,67 -12,12 -26,17 -36,13 -10,-4 -20,0 -26,11 -5,9 -13,14 -18,11 -13,-8 -90,16 -90,27 0,13 -49,29 -100,33 -24,2 -46,7 -48,13 -1,5 -12,8 -22,5 -11,-3 -20,-1 -20,5 0,6 -9,8 -20,5 -11,-3 -20,-1 -20,5 0,6 -9,8 -20,5 -11,-3 -20,-1 -20,5 0,6 -9,8 -20,5 -12,-3 -20,0 -20,7 0,8 -10,9 -30,5 -19,-4 -30,-3 -30,4 0,7 -10,9 -25,5 -16,-4 -25,-2 -25,5 0,8 -11,10 -35,5 -24,-4 -35,-3 -35,6 0,8 -12,10 -40,5 -29,-5 -40,-3 -40,6 0,9 -16,10 -60,6 -37,-4 -60,-3 -60,3 0,13 -287,13 -295,1 z" /><path
         id="p13Je2x9XS"
         d="m 7025,9101 c -3,-5 -29,-7 -59,-4 -33,3 -56,1 -60,-5 -3,-6 -21,-8 -40,-5 -20,3 -36,1 -40,-6 -4,-6 -18,-8 -31,-5 -12,3 -26,1 -29,-4 -3,-6 -15,-8 -25,-5 -10,3 -22,0 -25,-5 -3,-6 -15,-8 -25,-5 -10,3 -22,0 -25,-6 -4,-5 -13,-8 -20,-5 -8,3 -17,1 -20,-5 -4,-6 -13,-8 -20,-5 -8,3 -17,0 -21,-5 -3,-6 -11,-9 -16,-6 -5,4 -15,3 -21,-2 -7,-4 -24,-9 -37,-11 -14,-2 -34,-8 -45,-15 -12,-6 -24,-12 -28,-13 -5,-1 -10,-3 -13,-4 -3,-1 -9,-4 -15,-5 -5,-1 -11,-3 -12,-4 -2,-2 -14,-4 -27,-7 -13,-2 -35,-10 -50,-17 -82,-42 -141,-69 -148,-69 -4,0 -15,-5 -23,-13 -8,-7 -31,-20 -50,-29 -19,-9 -48,-25 -65,-36 -16,-11 -37,-23 -45,-27 -73,-35 -270,-195 -386,-315 -260,-267 -433,-581 -515,-937 -11,-47 -22,-93 -25,-101 -7,-16 -7,-22 -23,-220 -28,-348 45,-713 209,-1040 162,-324 437,-620 765,-824 88,-55 265,-141 363,-176 34,-13 65,-27 68,-31 3,-5 16,-9 29,-9 13,0 34,-4 47,-9 48,-20 63,-25 78,-27 8,-1 60,-11 115,-22 176,-36 312,-46 514,-38 198,8 222,10 261,20 14,3 41,8 60,11 65,8 224,53 345,98 297,109 543,265 755,477 69,69 136,140 150,158 14,18 37,48 52,65 15,18 30,40 34,50 3,9 10,17 15,17 5,0 9,7 9,15 0,8 5,15 10,15 6,0 10,7 10,15 0,8 5,15 10,15 6,0 10,7 10,15 0,8 5,15 11,15 5,0 7,5 4,10 -3,6 -1,10 4,10 6,0 11,7 11,15 0,8 5,15 12,15 6,0 9,3 5,6 -3,4 1,13 9,21 8,8 12,19 9,24 -4,5 -2,9 3,9 10,0 58,100 55,112 -2,4 2,8 8,8 5,0 8,4 5,9 -4,5 -2,11 3,13 5,1 11,12 13,23 1,11 5,22 8,25 12,12 30,62 25,71 -4,5 -2,9 3,9 9,0 37,81 37,105 0,6 4,13 8,16 5,3 9,22 10,42 1,20 6,37 11,37 4,0 6,9 3,20 -3,11 -1,20 5,20 6,0 8,11 6,25 -3,14 -1,25 5,25 5,0 7,11 5,25 -3,14 -1,25 5,25 6,0 7,17 4,40 -3,24 -1,40 5,40 7,0 9,17 6,45 -3,25 -2,45 3,45 5,0 9,68 9,150 0,88 -4,150 -10,150 -5,0 -7,21 -3,50 4,33 2,50 -5,50 -7,0 -9,13 -5,35 4,22 2,35 -5,35 -7,0 -9,11 -5,30 3,17 1,30 -4,30 -6,0 -8,11 -5,25 2,14 0,25 -6,25 -6,0 -8,9 -5,20 3,11 1,20 -5,20 -6,0 -8,9 -5,20 3,11 1,20 -4,20 -6,0 -8,11 -6,23 3,13 -2,30 -9,38 -8,8 -13,20 -10,27 2,6 0,12 -5,12 -4,0 -8,16 -9,36 0,20 -7,42 -16,48 -8,6 -13,16 -11,23 6,16 -24,83 -37,83 -6,0 -8,5 -4,11 9,16 -67,169 -84,169 -7,0 -10,5 -7,10 8,14 -35,90 -52,90 -7,0 -10,6 -7,15 4,9 0,15 -10,15 -10,0 -13,6 -10,15 4,9 0,15 -10,15 -10,0 -13,6 -9,16 4,10 -1,17 -15,21 -12,3 -18,10 -15,19 3,8 -3,17 -13,21 -11,5 -19,15 -19,23 0,8 -9,19 -20,25 -11,5 -20,17 -20,25 0,8 -11,20 -25,27 -14,7 -24,18 -22,25 4,17 -149,168 -171,168 -9,0 -22,11 -27,25 -6,15 -17,25 -30,25 -13,0 -24,10 -30,25 -6,15 -17,25 -30,25 -11,0 -20,5 -20,10 0,6 -7,10 -15,10 -8,0 -15,7 -15,15 0,8 -9,15 -20,15 -11,0 -20,5 -20,10 0,6 -7,10 -15,10 -8,0 -15,5 -15,10 0,6 -7,10 -15,10 -8,0 -14,5 -12,12 1,7 -11,15 -28,19 -16,4 -25,7 -20,8 19,3 -29,31 -53,31 -13,0 -21,4 -17,9 6,11 -26,31 -49,31 -9,0 -25,9 -36,20 -11,11 -26,17 -34,14 -15,-6 -76,21 -87,39 -4,5 -21,11 -39,12 -17,2 -37,10 -43,19 -7,9 -28,18 -47,20 -49,5 -90,17 -90,27 0,5 -7,6 -15,3 -8,-3 -22,2 -31,11 -11,11 -25,14 -42,10 -16,-4 -28,-1 -33,6 -4,7 -24,13 -43,12 -20,-1 -36,2 -36,7 0,4 -11,5 -25,2 -15,-2 -25,0 -25,8 0,8 -10,9 -30,5 -20,-4 -30,-3 -30,5 0,8 -12,10 -40,5 -29,-5 -40,-3 -40,6 0,9 -16,10 -60,6 -37,-4 -60,-3 -60,3 0,13 -227,13 -235,1 z" /><path
         id="p1IUXKG9t"
         d="m 11285,6650 c -4,-6 -33,-8 -75,-4 -48,5 -74,3 -84,-5 -8,-7 -25,-9 -40,-5 -15,3 -32,1 -40,-5 -7,-6 -21,-9 -30,-5 -9,3 -24,3 -33,-1 -10,-5 -28,-7 -40,-6 -11,1 -24,-3 -28,-9 -3,-5 -10,-8 -15,-5 -10,6 -100,-14 -116,-26 -6,-5 -13,-6 -16,-4 -3,3 -18,0 -34,-6 -16,-7 -37,-14 -47,-16 -10,-1 -34,-10 -55,-19 -20,-8 -39,-15 -42,-15 -3,-1 -11,-5 -17,-11 -7,-6 -13,-7 -13,-3 0,4 -20,-5 -45,-20 -25,-14 -55,-28 -66,-30 -19,-4 -119,-58 -178,-97 -14,-10 -35,-22 -46,-28 -88,-46 -327,-263 -430,-391 -254,-314 -395,-717 -395,-1129 0,-280 56,-518 180,-777 85,-177 156,-281 309,-451 170,-189 459,-384 709,-478 37,-14 73,-30 80,-36 7,-6 15,-8 18,-5 5,4 66,-12 114,-31 8,-3 24,-7 35,-8 11,-2 61,-10 110,-19 160,-28 341,-37 493,-24 181,15 182,15 217,23 17,4 59,14 95,22 60,14 186,49 220,62 8,3 17,6 20,7 15,3 147,65 220,103 215,110 469,317 585,476 20,27 33,44 68,85 9,12 17,26 17,31 0,6 5,10 10,10 6,0 10,7 10,15 0,8 5,15 10,15 6,0 10,7 10,15 0,8 4,15 10,15 5,0 12,11 16,25 3,14 10,25 16,25 5,0 6,5 3,10 -3,6 -2,10 3,10 5,0 17,19 28,43 10,23 21,44 25,47 8,6 24,53 21,63 -1,4 3,7 9,7 5,0 8,4 5,9 -4,5 -1,11 4,13 6,2 12,13 13,26 0,12 5,22 10,22 5,0 7,7 3,15 -3,8 -2,15 2,15 11,0 43,101 36,112 -3,4 0,8 6,8 7,0 10,7 6,15 -3,8 0,15 5,15 6,0 9,9 6,20 -3,11 -1,20 5,20 6,0 8,9 5,20 -3,11 -1,20 5,20 5,0 8,10 7,23 -1,12 1,30 6,40 4,9 5,24 1,32 -3,8 0,15 6,15 7,0 9,15 5,45 -5,30 -3,45 5,45 7,0 9,20 4,65 -4,42 -3,65 4,65 5,0 10,22 10,50 0,28 -5,50 -10,50 -6,0 -8,25 -4,70 5,49 4,70 -4,70 -8,0 -10,15 -5,45 3,27 2,45 -4,45 -6,0 -8,11 -5,25 2,15 0,25 -7,25 -7,0 -9,9 -5,25 3,14 2,25 -4,25 -5,0 -7,11 -4,25 2,14 0,25 -5,25 -6,0 -8,11 -6,23 3,14 -2,31 -11,39 -8,9 -12,18 -9,22 9,9 -29,127 -43,133 -6,2 -10,13 -7,24 3,11 -1,21 -11,25 -9,3 -13,10 -10,16 9,14 -77,188 -93,188 -8,0 -12,4 -9,9 9,14 -5,41 -21,41 -8,0 -12,4 -8,9 8,14 -35,81 -52,81 -8,0 -11,5 -8,10 9,14 -33,70 -51,70 -8,0 -12,5 -9,11 9,13 -23,48 -53,60 -13,5 -20,14 -16,20 9,14 -115,139 -138,139 -10,0 -18,6 -18,13 0,19 -33,47 -53,47 -9,0 -17,6 -17,14 0,18 -47,56 -70,56 -10,0 -20,9 -23,20 -3,14 -14,20 -31,20 -14,0 -26,5 -26,10 0,6 -7,10 -16,10 -8,0 -13,4 -9,9 7,12 -26,31 -54,31 -12,0 -20,5 -18,12 1,6 -7,13 -18,15 -32,6 -95,35 -95,44 0,13 -40,31 -71,33 -16,1 -35,10 -42,19 -6,10 -28,19 -47,21 -43,3 -150,37 -150,47 0,4 -9,5 -20,2 -11,-3 -20,-1 -20,5 0,6 -9,8 -20,5 -11,-3 -20,-1 -20,5 0,6 -9,8 -20,5 -11,-3 -20,-1 -20,5 0,6 -9,8 -20,5 -12,-3 -20,0 -20,7 0,8 -10,9 -30,5 -19,-4 -30,-3 -30,5 0,7 -12,9 -35,4 -24,-4 -35,-3 -35,6 0,8 -12,10 -40,5 -29,-5 -40,-3 -40,6 0,9 -19,10 -75,5 -50,-5 -75,-3 -75,4 0,13 -37,13 -45,0 z" /></g></g></g>&#10;</g>&#10;</svg>
